<?xml version="1.0" encoding="utf-8" standalone="no"?>
<!DOCTYPE svg PUBLIC "-//W3C//DTD SVG 1.1//EN"
  "http://www.w3.org/Graphics/SVG/1.1/DTD/svg11.dtd">
<svg xmlns:xlink="http://www.w3.org/1999/xlink" width="728.288906pt" height="310.161094pt" viewBox="0 0 728.288906 310.161094" xmlns="http://www.w3.org/2000/svg" version="1.1">
 <metadata>
  <rdf:RDF xmlns:dc="http://purl.org/dc/elements/1.1/" xmlns:cc="http://creativecommons.org/ns#" xmlns:rdf="http://www.w3.org/1999/02/22-rdf-syntax-ns#">
   <cc:Work>
    <dc:type rdf:resource="http://purl.org/dc/dcmitype/StillImage"/>
    <dc:date>2024-07-01T01:11:13.500926</dc:date>
    <dc:format>image/svg+xml</dc:format>
    <dc:creator>
     <cc:Agent>
      <dc:title>Matplotlib v3.8.4, https://matplotlib.org/</dc:title>
     </cc:Agent>
    </dc:creator>
   </cc:Work>
  </rdf:RDF>
 </metadata>
 <defs>
  <style type="text/css">*{stroke-linejoin: round; stroke-linecap: butt}</style>
 </defs>
 <g id="figure_1">
  <g id="patch_1">
   <path d="M 0 310.161094 
L 728.288906 310.161094 
L 728.288906 0 
L 0 0 
z
" style="fill: #ffffff"/>
  </g>
  <g id="axes_1">
   <g id="patch_2">
    <path d="M 68.451406 264.119375 
L 556.701406 264.119375 
L 556.701406 42.359375 
L 68.451406 42.359375 
z
" style="fill: #ffffff"/>
   </g>
   <g id="matplotlib.axis_1">
    <g id="xtick_1">
     <g id="line2d_1">
      <path d="M 90.644588 264.119375 
L 90.644588 42.359375 
" clip-path="url(#pd78b637248)" style="fill: none; stroke-dasharray: 4.81,2.08; stroke-dashoffset: 0; stroke: #e5e5e5; stroke-width: 1.3"/>
     </g>
     <g id="line2d_2"/>
     <g id="text_1">
      <!-- 1960 -->
      <g transform="translate(76.045994 276.290781) scale(0.13 -0.13)">
       <defs>
        <path id="AtkinsonHyperlegible-Regular-31" d="M 1408 0 
L 1408 3226 
L 269 3226 
L 269 3654 
Q 576 3654 841 3699 
Q 1107 3744 1302 3878 
Q 1498 4013 1587 4275 
L 1946 4275 
L 1946 0 
L 1408 0 
z
" transform="scale(0.015625)"/>
        <path id="AtkinsonHyperlegible-Regular-39" d="M 1363 0 
Q 1363 0 1449 121 
Q 1536 243 1673 441 
Q 1811 640 1964 873 
Q 2118 1107 2253 1325 
Q 2093 1286 1914 1286 
Q 1498 1286 1149 1494 
Q 800 1702 592 2051 
Q 384 2400 384 2822 
Q 384 3245 589 3590 
Q 794 3936 1142 4141 
Q 1491 4346 1914 4346 
Q 2355 4346 2700 4138 
Q 3046 3930 3244 3581 
Q 3443 3232 3443 2810 
Q 3443 2515 3328 2227 
Q 3296 2150 3181 1929 
Q 3066 1709 2890 1395 
Q 2714 1082 2493 720 
Q 2272 358 2029 0 
L 1363 0 
z
M 1914 1837 
Q 2189 1837 2413 1971 
Q 2637 2106 2771 2330 
Q 2906 2554 2906 2822 
Q 2906 3091 2771 3315 
Q 2637 3539 2413 3670 
Q 2189 3802 1914 3802 
Q 1645 3802 1421 3670 
Q 1197 3539 1065 3315 
Q 934 3091 934 2822 
Q 934 2554 1065 2330 
Q 1197 2106 1421 1971 
Q 1645 1837 1914 1837 
z
" transform="scale(0.015625)"/>
        <path id="AtkinsonHyperlegible-Regular-36" d="M 1939 -77 
Q 1139 -77 761 460 
Q 384 998 384 1984 
Q 384 2438 470 2860 
Q 557 3283 752 3619 
Q 947 3955 1267 4153 
Q 1587 4352 2054 4352 
Q 2528 4352 2822 4153 
Q 3117 3955 3258 3667 
L 2714 3507 
Q 2618 3693 2432 3798 
Q 2246 3904 1990 3904 
Q 1491 3904 1225 3449 
Q 960 2995 941 2253 
Q 1088 2502 1363 2675 
Q 1638 2848 2067 2848 
Q 2464 2848 2774 2662 
Q 3085 2477 3264 2150 
Q 3443 1824 3443 1395 
Q 3443 998 3257 662 
Q 3072 326 2736 124 
Q 2400 -77 1939 -77 
z
M 1939 378 
Q 2362 378 2614 656 
Q 2867 934 2867 1376 
Q 2867 1818 2614 2096 
Q 2362 2374 1939 2374 
Q 1510 2374 1257 2096 
Q 1005 1818 1005 1376 
Q 1005 934 1257 656 
Q 1510 378 1939 378 
z
" transform="scale(0.015625)"/>
        <path id="AtkinsonHyperlegible-Regular-30" d="M 2074 -77 
Q 1248 -77 816 496 
Q 384 1069 384 2144 
Q 384 3213 816 3782 
Q 1248 4352 2074 4352 
Q 2899 4352 3331 3782 
Q 3763 3213 3763 2144 
Q 3763 1069 3331 496 
Q 2899 -77 2074 -77 
z
M 3072 1216 
Q 3181 1600 3181 2144 
Q 3181 2982 2909 3430 
Q 2637 3878 2074 3878 
Q 1658 3878 1389 3622 
L 3072 1216 
z
M 2074 397 
Q 2515 397 2784 685 
L 1094 3110 
Q 1030 2912 998 2669 
Q 966 2426 966 2144 
Q 966 1306 1238 851 
Q 1510 397 2074 397 
z
" transform="scale(0.015625)"/>
       </defs>
       <use xlink:href="#AtkinsonHyperlegible-Regular-31"/>
       <use xlink:href="#AtkinsonHyperlegible-Regular-39" x="40.199997"/>
       <use xlink:href="#AtkinsonHyperlegible-Regular-36" x="99.999985"/>
       <use xlink:href="#AtkinsonHyperlegible-Regular-30" x="159.799973"/>
      </g>
     </g>
    </g>
    <g id="xtick_2">
     <g id="line2d_3">
      <path d="M 161.099134 264.119375 
L 161.099134 42.359375 
" clip-path="url(#pd78b637248)" style="fill: none; stroke-dasharray: 4.81,2.08; stroke-dashoffset: 0; stroke: #e5e5e5; stroke-width: 1.3"/>
     </g>
     <g id="line2d_4"/>
     <g id="text_2">
      <!-- 1970 -->
      <g transform="translate(147.072337 276.290781) scale(0.13 -0.13)">
       <defs>
        <path id="AtkinsonHyperlegible-Regular-37" d="M 595 0 
L 2451 3757 
L 96 3757 
L 96 4275 
L 3046 4275 
L 3046 3757 
L 1267 0 
L 595 0 
z
" transform="scale(0.015625)"/>
       </defs>
       <use xlink:href="#AtkinsonHyperlegible-Regular-31"/>
       <use xlink:href="#AtkinsonHyperlegible-Regular-39" x="40.199997"/>
       <use xlink:href="#AtkinsonHyperlegible-Regular-37" x="99.999985"/>
       <use xlink:href="#AtkinsonHyperlegible-Regular-30" x="150.999969"/>
      </g>
     </g>
    </g>
    <g id="xtick_3">
     <g id="line2d_5">
      <path d="M 231.553679 264.119375 
L 231.553679 42.359375 
" clip-path="url(#pd78b637248)" style="fill: none; stroke-dasharray: 4.81,2.08; stroke-dashoffset: 0; stroke: #e5e5e5; stroke-width: 1.3"/>
     </g>
     <g id="line2d_6"/>
     <g id="text_3">
      <!-- 1980 -->
      <g transform="translate(216.844382 276.290781) scale(0.13 -0.13)">
       <defs>
        <path id="AtkinsonHyperlegible-Regular-38" d="M 1965 -77 
Q 1523 -77 1164 73 
Q 806 224 595 509 
Q 384 794 384 1203 
Q 384 1619 601 1910 
Q 819 2202 1171 2342 
Q 1005 2502 905 2720 
Q 806 2938 806 3194 
Q 806 3514 963 3776 
Q 1120 4038 1382 4195 
Q 1645 4352 1965 4352 
Q 2291 4352 2553 4195 
Q 2816 4038 2973 3776 
Q 3130 3514 3130 3194 
Q 3130 2938 3030 2720 
Q 2931 2502 2765 2342 
Q 3123 2202 3337 1910 
Q 3552 1619 3552 1203 
Q 3552 794 3341 509 
Q 3130 224 2771 73 
Q 2413 -77 1965 -77 
z
M 1965 2502 
Q 2246 2502 2448 2704 
Q 2650 2906 2650 3200 
Q 2650 3482 2448 3680 
Q 2246 3878 1965 3878 
Q 1683 3878 1481 3680 
Q 1280 3482 1280 3200 
Q 1280 2906 1481 2704 
Q 1683 2502 1965 2502 
z
M 1965 397 
Q 2426 397 2698 614 
Q 2970 832 2970 1203 
Q 2970 1581 2698 1805 
Q 2426 2029 1965 2029 
Q 1510 2029 1238 1805 
Q 966 1581 966 1203 
Q 966 832 1238 614 
Q 1510 397 1965 397 
z
" transform="scale(0.015625)"/>
       </defs>
       <use xlink:href="#AtkinsonHyperlegible-Regular-31"/>
       <use xlink:href="#AtkinsonHyperlegible-Regular-39" x="40.199997"/>
       <use xlink:href="#AtkinsonHyperlegible-Regular-38" x="99.999985"/>
       <use xlink:href="#AtkinsonHyperlegible-Regular-30" x="161.499969"/>
      </g>
     </g>
    </g>
    <g id="xtick_4">
     <g id="line2d_7">
      <path d="M 302.008224 264.119375 
L 302.008224 42.359375 
" clip-path="url(#pd78b637248)" style="fill: none; stroke-dasharray: 4.81,2.08; stroke-dashoffset: 0; stroke: #e5e5e5; stroke-width: 1.3"/>
     </g>
     <g id="line2d_8"/>
     <g id="text_4">
      <!-- 1990 -->
      <g transform="translate(287.409631 276.290781) scale(0.13 -0.13)">
       <use xlink:href="#AtkinsonHyperlegible-Regular-31"/>
       <use xlink:href="#AtkinsonHyperlegible-Regular-39" x="40.199997"/>
       <use xlink:href="#AtkinsonHyperlegible-Regular-39" x="99.999985"/>
       <use xlink:href="#AtkinsonHyperlegible-Regular-30" x="159.799973"/>
      </g>
     </g>
    </g>
    <g id="xtick_5">
     <g id="line2d_9">
      <path d="M 372.46277 264.119375 
L 372.46277 42.359375 
" clip-path="url(#pd78b637248)" style="fill: none; stroke-dasharray: 4.81,2.08; stroke-dashoffset: 0; stroke: #e5e5e5; stroke-width: 1.3"/>
     </g>
     <g id="line2d_10"/>
     <g id="text_5">
      <!-- 2000 -->
      <g transform="translate(356.258473 276.290781) scale(0.13 -0.13)">
       <defs>
        <path id="AtkinsonHyperlegible-Regular-32" d="M 218 0 
L 218 480 
Q 973 1037 1507 1504 
Q 2042 1971 2326 2377 
Q 2611 2784 2611 3162 
Q 2611 3494 2400 3699 
Q 2189 3904 1811 3904 
Q 1510 3904 1251 3741 
Q 992 3578 915 3187 
L 378 3341 
Q 493 3808 877 4080 
Q 1261 4352 1824 4352 
Q 2221 4352 2525 4221 
Q 2829 4090 3005 3840 
Q 3181 3590 3181 3232 
Q 3181 2861 3001 2505 
Q 2822 2150 2508 1814 
Q 2195 1478 1792 1148 
Q 1389 819 941 493 
L 3296 493 
L 3296 0 
L 218 0 
z
" transform="scale(0.015625)"/>
       </defs>
       <use xlink:href="#AtkinsonHyperlegible-Regular-32"/>
       <use xlink:href="#AtkinsonHyperlegible-Regular-30" x="54.899994"/>
       <use xlink:href="#AtkinsonHyperlegible-Regular-30" x="119.699982"/>
       <use xlink:href="#AtkinsonHyperlegible-Regular-30" x="184.499969"/>
      </g>
     </g>
    </g>
    <g id="xtick_6">
     <g id="line2d_11">
      <path d="M 442.917315 264.119375 
L 442.917315 42.359375 
" clip-path="url(#pd78b637248)" style="fill: none; stroke-dasharray: 4.81,2.08; stroke-dashoffset: 0; stroke: #e5e5e5; stroke-width: 1.3"/>
     </g>
     <g id="line2d_12"/>
     <g id="text_6">
      <!-- 2010 -->
      <g transform="translate(428.311612 276.290781) scale(0.13 -0.13)">
       <use xlink:href="#AtkinsonHyperlegible-Regular-32"/>
       <use xlink:href="#AtkinsonHyperlegible-Regular-30" x="54.899994"/>
       <use xlink:href="#AtkinsonHyperlegible-Regular-31" x="119.699982"/>
       <use xlink:href="#AtkinsonHyperlegible-Regular-30" x="159.899979"/>
      </g>
     </g>
    </g>
    <g id="xtick_7">
     <g id="line2d_13">
      <path d="M 513.371861 264.119375 
L 513.371861 42.359375 
" clip-path="url(#pd78b637248)" style="fill: none; stroke-dasharray: 4.81,2.08; stroke-dashoffset: 0; stroke: #e5e5e5; stroke-width: 1.3"/>
     </g>
     <g id="line2d_14"/>
     <g id="text_7">
      <!-- 2020 -->
      <g transform="translate(497.810455 276.290781) scale(0.13 -0.13)">
       <use xlink:href="#AtkinsonHyperlegible-Regular-32"/>
       <use xlink:href="#AtkinsonHyperlegible-Regular-30" x="54.899994"/>
       <use xlink:href="#AtkinsonHyperlegible-Regular-32" x="119.699982"/>
       <use xlink:href="#AtkinsonHyperlegible-Regular-30" x="174.599976"/>
      </g>
     </g>
    </g>
    <g id="text_8">
     <!-- Date -->
     <g transform="translate(513.023281 299.742344) scale(0.2 -0.2)">
      <defs>
       <path id="AtkinsonHyperlegible-Bold-44" d="M 282 0 
L 282 4275 
L 1690 4275 
Q 2214 4275 2665 4169 
Q 3117 4064 3453 3817 
Q 3789 3571 3977 3158 
Q 4166 2746 4166 2138 
Q 4166 1523 3977 1113 
Q 3789 704 3453 457 
Q 3117 211 2665 105 
Q 2214 0 1690 0 
L 282 0 
z
M 1293 851 
L 1709 851 
Q 1984 851 2237 896 
Q 2490 941 2691 1072 
Q 2893 1203 3008 1459 
Q 3123 1715 3123 2138 
Q 3123 2560 3008 2819 
Q 2893 3078 2691 3209 
Q 2490 3341 2237 3389 
Q 1984 3437 1709 3437 
L 1293 3437 
L 1293 851 
z
" transform="scale(0.015625)"/>
       <path id="AtkinsonHyperlegible-Bold-61" d="M 1248 -77 
Q 947 -77 697 38 
Q 448 154 301 362 
Q 154 570 154 858 
Q 154 1248 426 1478 
Q 698 1709 1171 1824 
Q 1645 1939 2259 1984 
Q 2259 2323 2150 2464 
Q 2042 2605 1728 2605 
Q 1530 2605 1379 2512 
Q 1229 2419 1178 2227 
L 358 2522 
Q 518 2842 892 3053 
Q 1267 3264 1811 3264 
Q 2490 3264 2854 2963 
Q 3219 2662 3219 1939 
L 3219 1242 
Q 3219 1037 3232 800 
Q 3245 563 3270 352 
Q 3296 141 3328 0 
L 2426 0 
L 2310 384 
Q 2131 134 1859 28 
Q 1587 -77 1248 -77 
z
M 1606 589 
Q 1894 589 2086 742 
Q 2278 896 2278 1331 
L 2278 1408 
Q 1773 1363 1465 1270 
Q 1158 1178 1158 928 
Q 1158 774 1286 681 
Q 1414 589 1606 589 
z
" transform="scale(0.015625)"/>
       <path id="AtkinsonHyperlegible-Bold-74" d="M 1658 0 
Q 1267 0 1036 67 
Q 806 134 707 329 
Q 608 525 608 896 
L 608 2432 
L 83 2432 
L 83 3174 
L 608 3174 
L 608 3968 
L 1581 3968 
L 1581 3174 
L 2272 3174 
L 2272 2432 
L 1581 2432 
L 1581 1152 
Q 1581 928 1667 861 
Q 1754 794 1990 794 
L 2272 794 
L 2272 0 
L 1658 0 
z
" transform="scale(0.015625)"/>
       <path id="AtkinsonHyperlegible-Bold-65" d="M 1894 -77 
Q 1382 -77 988 124 
Q 595 326 374 704 
Q 154 1082 154 1606 
Q 154 2112 387 2483 
Q 621 2854 1008 3059 
Q 1395 3264 1856 3264 
Q 2381 3264 2755 3017 
Q 3130 2771 3322 2339 
Q 3514 1907 3482 1344 
L 1133 1344 
Q 1158 1011 1379 844 
Q 1600 678 1869 678 
Q 2093 678 2256 745 
Q 2419 813 2509 915 
L 3283 634 
Q 3034 269 2659 96 
Q 2285 -77 1894 -77 
z
M 1133 1920 
L 2579 1920 
Q 2573 2227 2368 2384 
Q 2163 2541 1882 2541 
Q 1606 2541 1392 2393 
Q 1178 2246 1133 1920 
z
" transform="scale(0.015625)"/>
      </defs>
      <use xlink:href="#AtkinsonHyperlegible-Bold-44"/>
      <use xlink:href="#AtkinsonHyperlegible-Bold-61" x="68.599991"/>
      <use xlink:href="#AtkinsonHyperlegible-Bold-74" x="123.899979"/>
      <use xlink:href="#AtkinsonHyperlegible-Bold-65" x="161.799973"/>
     </g>
    </g>
   </g>
   <g id="matplotlib.axis_2">
    <g id="ytick_1">
     <g id="line2d_15">
      <path d="M 68.451406 194.443452 
L 556.701406 194.443452 
" clip-path="url(#pd78b637248)" style="fill: none; stroke-dasharray: 4.81,2.08; stroke-dashoffset: 0; stroke: #e5e5e5; stroke-width: 1.3"/>
     </g>
     <g id="line2d_16"/>
     <g id="text_9">
      <!-- $1K -->
      <g transform="translate(43.850781 198.786265) scale(0.13 -0.13)">
       <defs>
        <path id="AtkinsonHyperlegible-Regular-24" d="M 1709 -557 
L 1709 -70 
Q 1158 -19 787 243 
Q 416 506 256 934 
L 813 1101 
Q 1030 531 1709 442 
L 1709 1971 
L 1478 2016 
Q 1184 2074 915 2211 
Q 646 2349 473 2589 
Q 301 2829 301 3187 
Q 301 3469 425 3680 
Q 550 3891 758 4032 
Q 966 4173 1212 4249 
Q 1459 4326 1709 4346 
L 1709 4749 
L 2029 4749 
L 2029 4346 
Q 2458 4314 2813 4122 
Q 3168 3930 3347 3552 
L 2797 3392 
Q 2675 3597 2464 3702 
Q 2253 3808 2029 3834 
L 2029 2470 
L 2106 2451 
Q 2349 2387 2601 2304 
Q 2854 2221 3068 2086 
Q 3283 1952 3414 1741 
Q 3546 1530 3546 1203 
Q 3546 806 3334 524 
Q 3123 243 2777 92 
Q 2432 -58 2029 -77 
L 2029 -557 
L 1709 -557 
z
M 1709 2547 
L 1709 3840 
Q 1542 3827 1356 3760 
Q 1171 3693 1043 3565 
Q 915 3437 915 3219 
Q 915 2938 1116 2781 
Q 1318 2624 1613 2566 
L 1709 2547 
z
M 2029 435 
Q 2458 461 2691 659 
Q 2925 858 2925 1152 
Q 2925 1485 2675 1648 
Q 2426 1811 2029 1901 
L 2029 435 
z
" transform="scale(0.015625)"/>
        <path id="AtkinsonHyperlegible-Regular-4b" d="M 486 0 
L 486 4275 
L 1088 4275 
L 1088 2125 
L 3014 4275 
L 3763 4275 
L 2131 2490 
L 3949 0 
L 3213 0 
L 1728 2048 
L 1088 1344 
L 1088 0 
L 486 0 
z
" transform="scale(0.015625)"/>
       </defs>
       <use xlink:href="#AtkinsonHyperlegible-Regular-24"/>
       <use xlink:href="#AtkinsonHyperlegible-Regular-31" x="59.399994"/>
       <use xlink:href="#AtkinsonHyperlegible-Regular-4b" x="99.599991"/>
      </g>
     </g>
    </g>
    <g id="ytick_2">
     <g id="line2d_17">
      <path d="M 68.451406 118.401414 
L 556.701406 118.401414 
" clip-path="url(#pd78b637248)" style="fill: none; stroke-dasharray: 4.81,2.08; stroke-dashoffset: 0; stroke: #e5e5e5; stroke-width: 1.3"/>
     </g>
     <g id="line2d_18"/>
     <g id="text_10">
      <!-- $10K -->
      <g transform="translate(35.427188 122.744226) scale(0.13 -0.13)">
       <use xlink:href="#AtkinsonHyperlegible-Regular-24"/>
       <use xlink:href="#AtkinsonHyperlegible-Regular-31" x="59.399994"/>
       <use xlink:href="#AtkinsonHyperlegible-Regular-30" x="99.599991"/>
       <use xlink:href="#AtkinsonHyperlegible-Regular-4b" x="164.399979"/>
      </g>
     </g>
    </g>
    <g id="ytick_3">
     <g id="line2d_19">
      <path d="M 68.451406 42.359375 
L 556.701406 42.359375 
" clip-path="url(#pd78b637248)" style="fill: none; stroke-dasharray: 4.81,2.08; stroke-dashoffset: 0; stroke: #e5e5e5; stroke-width: 1.3"/>
     </g>
     <g id="line2d_20"/>
     <g id="text_11">
      <!-- $100K -->
      <g transform="translate(27.003594 46.702187) scale(0.13 -0.13)">
       <use xlink:href="#AtkinsonHyperlegible-Regular-24"/>
       <use xlink:href="#AtkinsonHyperlegible-Regular-31" x="59.399994"/>
       <use xlink:href="#AtkinsonHyperlegible-Regular-30" x="99.599991"/>
       <use xlink:href="#AtkinsonHyperlegible-Regular-30" x="164.399979"/>
       <use xlink:href="#AtkinsonHyperlegible-Regular-4b" x="229.199966"/>
      </g>
     </g>
    </g>
    <g id="ytick_4">
     <g id="line2d_21"/>
    </g>
    <g id="ytick_5">
     <g id="line2d_22"/>
    </g>
    <g id="ytick_6">
     <g id="line2d_23"/>
    </g>
    <g id="ytick_7">
     <g id="line2d_24"/>
    </g>
    <g id="ytick_8">
     <g id="line2d_25"/>
    </g>
    <g id="ytick_9">
     <g id="line2d_26"/>
    </g>
    <g id="ytick_10">
     <g id="line2d_27"/>
    </g>
    <g id="ytick_11">
     <g id="line2d_28"/>
    </g>
    <g id="ytick_12">
     <g id="line2d_29"/>
    </g>
    <g id="ytick_13">
     <g id="line2d_30"/>
    </g>
    <g id="ytick_14">
     <g id="line2d_31"/>
    </g>
    <g id="ytick_15">
     <g id="line2d_32"/>
    </g>
    <g id="ytick_16">
     <g id="line2d_33"/>
    </g>
    <g id="ytick_17">
     <g id="line2d_34"/>
    </g>
    <g id="ytick_18">
     <g id="line2d_35"/>
    </g>
    <g id="ytick_19">
     <g id="line2d_36"/>
    </g>
    <g id="ytick_20">
     <g id="line2d_37"/>
    </g>
    <g id="ytick_21">
     <g id="line2d_38"/>
    </g>
    <g id="ytick_22">
     <g id="line2d_39"/>
    </g>
    <g id="ytick_23">
     <g id="line2d_40"/>
    </g>
    <g id="ytick_24">
     <g id="line2d_41"/>
    </g>
    <g id="ytick_25">
     <g id="line2d_42"/>
    </g>
    <g id="ytick_26">
     <g id="line2d_43"/>
    </g>
    <g id="ytick_27">
     <g id="line2d_44"/>
    </g>
    <g id="text_12">
     <!-- Output per worker (Constant 2015 $) -->
     <g transform="translate(16.911406 269.197187) rotate(-90) scale(0.13 -0.13)">
      <defs>
       <path id="AtkinsonHyperlegible-Bold-4f" d="M 2438 -77 
Q 1786 -77 1286 198 
Q 787 474 505 973 
Q 224 1472 224 2138 
Q 224 2803 505 3302 
Q 787 3802 1286 4077 
Q 1786 4352 2438 4352 
Q 3098 4352 3597 4077 
Q 4096 3802 4381 3302 
Q 4666 2803 4666 2138 
Q 4666 1472 4381 973 
Q 4096 474 3597 198 
Q 3098 -77 2438 -77 
z
M 2438 755 
Q 2752 755 3014 912 
Q 3277 1069 3433 1376 
Q 3590 1683 3590 2138 
Q 3590 2592 3433 2899 
Q 3277 3206 3014 3363 
Q 2752 3520 2438 3520 
Q 2131 3520 1868 3363 
Q 1606 3206 1449 2899 
Q 1293 2592 1293 2138 
Q 1293 1683 1449 1376 
Q 1606 1069 1868 912 
Q 2131 755 2438 755 
z
" transform="scale(0.015625)"/>
       <path id="AtkinsonHyperlegible-Bold-75" d="M 1421 -77 
Q 998 -77 758 80 
Q 518 237 419 537 
Q 320 838 320 1267 
L 320 3174 
L 1293 3174 
L 1293 1402 
Q 1293 966 1424 822 
Q 1555 678 1792 678 
Q 2080 678 2211 870 
Q 2342 1062 2342 1504 
L 2342 3174 
L 3322 3174 
L 3322 0 
L 2477 0 
L 2342 448 
Q 2202 211 1994 67 
Q 1786 -77 1421 -77 
z
" transform="scale(0.015625)"/>
       <path id="AtkinsonHyperlegible-Bold-70" d="M 320 -1030 
L 320 3174 
L 1165 3174 
L 1293 2739 
Q 1446 3002 1724 3133 
Q 2003 3264 2259 3264 
Q 2669 3264 2985 3059 
Q 3302 2854 3481 2480 
Q 3661 2106 3661 1587 
Q 3661 1069 3481 694 
Q 3302 320 2985 121 
Q 2669 -77 2259 -77 
Q 2003 -77 1724 57 
Q 1446 192 1293 454 
L 1293 -1030 
L 320 -1030 
z
M 1952 678 
Q 2234 678 2442 908 
Q 2650 1139 2650 1587 
Q 2650 2022 2442 2265 
Q 2234 2509 1952 2509 
Q 1664 2509 1456 2304 
Q 1248 2099 1248 1606 
Q 1248 1120 1456 899 
Q 1664 678 1952 678 
z
" transform="scale(0.015625)"/>
       <path id="AtkinsonHyperlegible-Bold-20" transform="scale(0.015625)"/>
       <path id="AtkinsonHyperlegible-Bold-72" d="M 320 0 
L 320 3174 
L 1088 3174 
L 1261 2592 
Q 1408 2976 1664 3129 
Q 1920 3283 2285 3264 
L 2285 2291 
Q 2208 2304 2150 2307 
Q 2093 2310 2022 2310 
Q 1670 2310 1481 2144 
Q 1293 1978 1293 1600 
L 1293 0 
L 320 0 
z
" transform="scale(0.015625)"/>
       <path id="AtkinsonHyperlegible-Bold-77" d="M 794 0 
L 0 3174 
L 960 3174 
L 1440 1024 
L 1850 3174 
L 2771 3174 
L 3181 1024 
L 3661 3174 
L 4627 3174 
L 3834 0 
L 2771 0 
L 2310 2278 
L 1856 0 
L 794 0 
z
" transform="scale(0.015625)"/>
       <path id="AtkinsonHyperlegible-Bold-6f" d="M 1837 -77 
Q 1395 -77 1011 102 
Q 627 282 390 656 
Q 154 1030 154 1600 
Q 154 2176 390 2544 
Q 627 2912 1011 3088 
Q 1395 3264 1837 3264 
Q 2272 3264 2656 3088 
Q 3040 2912 3277 2544 
Q 3514 2176 3514 1600 
Q 3514 1030 3277 656 
Q 3040 282 2656 102 
Q 2272 -77 1837 -77 
z
M 1837 678 
Q 2131 678 2326 889 
Q 2522 1101 2522 1600 
Q 2522 2106 2320 2307 
Q 2118 2509 1837 2509 
Q 1549 2509 1347 2307 
Q 1146 2106 1146 1600 
Q 1146 1101 1344 889 
Q 1542 678 1837 678 
z
" transform="scale(0.015625)"/>
       <path id="AtkinsonHyperlegible-Bold-6b" d="M 320 0 
L 320 4275 
L 1293 4275 
L 1293 1971 
L 2355 3174 
L 3507 3174 
L 2266 1850 
L 3603 0 
L 2451 0 
L 1626 1152 
L 1293 800 
L 1293 0 
L 320 0 
z
" transform="scale(0.015625)"/>
       <path id="AtkinsonHyperlegible-Bold-28" d="M 1152 -1030 
Q 730 -442 477 275 
Q 224 992 224 1792 
Q 224 2458 409 3091 
Q 595 3725 928 4275 
L 1850 4275 
Q 1478 3712 1302 3085 
Q 1126 2458 1126 1766 
Q 1126 973 1414 262 
Q 1702 -448 2118 -1030 
L 1152 -1030 
z
" transform="scale(0.015625)"/>
       <path id="AtkinsonHyperlegible-Bold-43" d="M 2362 -77 
Q 1696 -77 1216 192 
Q 736 461 480 960 
Q 224 1459 224 2138 
Q 224 2816 489 3312 
Q 755 3808 1241 4080 
Q 1728 4352 2387 4352 
Q 2995 4352 3446 4083 
Q 3898 3814 4141 3360 
L 3245 3034 
Q 3104 3296 2861 3408 
Q 2618 3520 2355 3520 
Q 2061 3520 1817 3357 
Q 1574 3194 1433 2883 
Q 1293 2573 1293 2138 
Q 1293 1466 1603 1110 
Q 1914 755 2368 755 
Q 2611 755 2870 857 
Q 3130 960 3277 1235 
L 4166 909 
Q 3910 454 3440 188 
Q 2970 -77 2362 -77 
z
" transform="scale(0.015625)"/>
       <path id="AtkinsonHyperlegible-Bold-6e" d="M 320 0 
L 320 3174 
L 1171 3174 
L 1293 2752 
Q 1402 2931 1654 3097 
Q 1907 3264 2272 3264 
Q 2886 3264 3113 2921 
Q 3341 2579 3341 1933 
L 3341 0 
L 2368 0 
L 2368 1690 
Q 2368 1914 2342 2099 
Q 2317 2285 2217 2397 
Q 2118 2509 1882 2509 
Q 1574 2509 1433 2288 
Q 1293 2067 1293 1632 
L 1293 0 
L 320 0 
z
" transform="scale(0.015625)"/>
       <path id="AtkinsonHyperlegible-Bold-73" d="M 1690 -77 
Q 1133 -77 726 128 
Q 320 333 134 730 
L 960 1030 
Q 1030 832 1232 733 
Q 1434 634 1709 634 
Q 1946 634 2128 707 
Q 2310 781 2310 928 
Q 2310 1030 2201 1100 
Q 2093 1171 1818 1216 
L 1248 1312 
Q 787 1389 499 1625 
Q 211 1862 211 2259 
Q 211 2592 412 2816 
Q 614 3040 947 3152 
Q 1280 3264 1670 3264 
Q 2125 3264 2512 3101 
Q 2899 2938 3078 2560 
L 2259 2259 
Q 2214 2432 2048 2493 
Q 1882 2554 1664 2554 
Q 1139 2554 1139 2298 
Q 1139 2202 1228 2141 
Q 1318 2080 1530 2042 
L 2118 1933 
Q 2694 1830 2969 1632 
Q 3245 1434 3245 1037 
Q 3245 666 3033 416 
Q 2822 166 2470 44 
Q 2118 -77 1690 -77 
z
" transform="scale(0.015625)"/>
       <path id="AtkinsonHyperlegible-Bold-32" d="M 218 0 
L 218 800 
Q 1062 1395 1561 1808 
Q 2061 2221 2281 2534 
Q 2502 2848 2502 3123 
Q 2502 3373 2326 3501 
Q 2150 3629 1914 3629 
Q 1715 3629 1523 3517 
Q 1331 3405 1261 3104 
L 378 3424 
Q 550 3872 972 4112 
Q 1395 4352 1958 4352 
Q 2394 4352 2739 4208 
Q 3085 4064 3283 3785 
Q 3482 3507 3482 3104 
Q 3482 2458 2941 1904 
Q 2400 1350 1459 800 
L 3501 800 
L 3501 0 
L 218 0 
z
" transform="scale(0.015625)"/>
       <path id="AtkinsonHyperlegible-Bold-30" d="M 2118 -77 
Q 1523 -77 1113 195 
Q 704 467 496 966 
Q 288 1466 288 2144 
Q 288 3174 755 3763 
Q 1222 4352 2118 4352 
Q 3021 4352 3488 3763 
Q 3955 3174 3955 2144 
Q 3955 1466 3747 966 
Q 3539 467 3129 195 
Q 2720 -77 2118 -77 
z
M 2912 1574 
Q 2950 1824 2950 2138 
Q 2950 2918 2723 3273 
Q 2496 3629 2118 3629 
Q 1830 3629 1626 3418 
L 2912 1574 
z
M 2118 646 
Q 2438 646 2637 890 
L 1338 2758 
Q 1312 2624 1299 2473 
Q 1286 2323 1286 2144 
Q 1286 1370 1516 1008 
Q 1747 646 2118 646 
z
" transform="scale(0.015625)"/>
       <path id="AtkinsonHyperlegible-Bold-31" d="M 1274 0 
L 1274 2867 
L 301 2867 
L 301 3654 
Q 640 3654 864 3689 
Q 1088 3725 1238 3856 
Q 1389 3987 1504 4275 
L 2240 4275 
L 2240 0 
L 1274 0 
z
" transform="scale(0.015625)"/>
       <path id="AtkinsonHyperlegible-Bold-35" d="M 1888 -77 
Q 1331 -77 899 169 
Q 467 416 262 890 
L 1107 1197 
Q 1197 883 1398 764 
Q 1600 646 1837 646 
Q 2176 646 2393 844 
Q 2611 1043 2611 1414 
Q 2611 1811 2384 1996 
Q 2157 2182 1856 2182 
Q 1382 2182 1152 1766 
L 288 2086 
L 557 4275 
L 3418 4275 
L 3418 3482 
L 1363 3482 
L 1267 2682 
Q 1414 2790 1654 2848 
Q 1894 2906 2118 2906 
Q 2502 2906 2844 2739 
Q 3187 2573 3401 2243 
Q 3616 1914 3616 1414 
Q 3616 928 3376 595 
Q 3136 262 2742 92 
Q 2349 -77 1888 -77 
z
" transform="scale(0.015625)"/>
       <path id="AtkinsonHyperlegible-Bold-24" d="M 1741 -557 
L 1741 -64 
Q 1146 -13 742 265 
Q 339 544 160 1005 
L 1082 1338 
Q 1152 1101 1318 960 
Q 1485 819 1741 768 
L 1741 1773 
L 1478 1830 
Q 1133 1907 835 2048 
Q 538 2189 358 2429 
Q 179 2669 179 3034 
Q 179 3450 409 3725 
Q 640 4000 998 4153 
Q 1357 4307 1741 4339 
L 1741 4781 
L 2208 4781 
L 2208 4339 
Q 2675 4301 3062 4083 
Q 3450 3866 3629 3424 
L 2714 3091 
Q 2592 3405 2208 3507 
L 2208 2592 
L 2278 2579 
Q 2541 2534 2809 2454 
Q 3078 2374 3305 2240 
Q 3533 2106 3673 1888 
Q 3814 1670 3814 1338 
Q 3814 922 3584 618 
Q 3354 314 2986 141 
Q 2618 -32 2208 -70 
L 2208 -557 
L 1741 -557 
z
M 1741 2688 
L 1741 3533 
Q 1510 3507 1363 3401 
Q 1216 3296 1216 3130 
Q 1216 2970 1350 2851 
Q 1485 2733 1702 2694 
L 1741 2688 
z
M 2208 749 
Q 2426 774 2602 880 
Q 2778 986 2778 1210 
Q 2778 1382 2624 1491 
Q 2470 1600 2208 1670 
L 2208 749 
z
" transform="scale(0.015625)"/>
       <path id="AtkinsonHyperlegible-Bold-29" d="M 224 -1030 
Q 646 -448 931 262 
Q 1216 973 1216 1766 
Q 1216 2458 1043 3085 
Q 870 3712 493 4275 
L 1414 4275 
Q 1754 3725 1936 3091 
Q 2118 2458 2118 1792 
Q 2118 992 1865 275 
Q 1613 -442 1197 -1030 
L 224 -1030 
z
" transform="scale(0.015625)"/>
      </defs>
      <use xlink:href="#AtkinsonHyperlegible-Bold-4f"/>
      <use xlink:href="#AtkinsonHyperlegible-Bold-75" x="76.399994"/>
      <use xlink:href="#AtkinsonHyperlegible-Bold-74" x="133.399979"/>
      <use xlink:href="#AtkinsonHyperlegible-Bold-70" x="171.299973"/>
      <use xlink:href="#AtkinsonHyperlegible-Bold-75" x="230.899963"/>
      <use xlink:href="#AtkinsonHyperlegible-Bold-74" x="287.899948"/>
      <use xlink:href="#AtkinsonHyperlegible-Bold-20" x="325.799942"/>
      <use xlink:href="#AtkinsonHyperlegible-Bold-70" x="357.799927"/>
      <use xlink:href="#AtkinsonHyperlegible-Bold-65" x="417.399918"/>
      <use xlink:href="#AtkinsonHyperlegible-Bold-72" x="473.999908"/>
      <use xlink:href="#AtkinsonHyperlegible-Bold-20" x="511.199905"/>
      <use xlink:href="#AtkinsonHyperlegible-Bold-77" x="543.19989"/>
      <use xlink:href="#AtkinsonHyperlegible-Bold-6f" x="615.499878"/>
      <use xlink:href="#AtkinsonHyperlegible-Bold-72" x="672.799866"/>
      <use xlink:href="#AtkinsonHyperlegible-Bold-6b" x="709.999863"/>
      <use xlink:href="#AtkinsonHyperlegible-Bold-65" x="766.69986"/>
      <use xlink:href="#AtkinsonHyperlegible-Bold-72" x="823.29985"/>
      <use xlink:href="#AtkinsonHyperlegible-Bold-20" x="860.499847"/>
      <use xlink:href="#AtkinsonHyperlegible-Bold-28" x="892.499832"/>
      <use xlink:href="#AtkinsonHyperlegible-Bold-43" x="929.099823"/>
      <use xlink:href="#AtkinsonHyperlegible-Bold-6f" x="996.399811"/>
      <use xlink:href="#AtkinsonHyperlegible-Bold-6e" x="1053.699799"/>
      <use xlink:href="#AtkinsonHyperlegible-Bold-73" x="1110.899796"/>
      <use xlink:href="#AtkinsonHyperlegible-Bold-74" x="1164.299789"/>
      <use xlink:href="#AtkinsonHyperlegible-Bold-61" x="1202.199783"/>
      <use xlink:href="#AtkinsonHyperlegible-Bold-6e" x="1257.499771"/>
      <use xlink:href="#AtkinsonHyperlegible-Bold-74" x="1314.699768"/>
      <use xlink:href="#AtkinsonHyperlegible-Bold-20" x="1352.599762"/>
      <use xlink:href="#AtkinsonHyperlegible-Bold-32" x="1384.599747"/>
      <use xlink:href="#AtkinsonHyperlegible-Bold-30" x="1443.199738"/>
      <use xlink:href="#AtkinsonHyperlegible-Bold-31" x="1508.399734"/>
      <use xlink:href="#AtkinsonHyperlegible-Bold-35" x="1553.199722"/>
      <use xlink:href="#AtkinsonHyperlegible-Bold-20" x="1614.399719"/>
      <use xlink:href="#AtkinsonHyperlegible-Bold-24" x="1646.399704"/>
      <use xlink:href="#AtkinsonHyperlegible-Bold-29" x="1708.299698"/>
     </g>
    </g>
   </g>
   <g id="line2d_45">
    <path d="M 97.690043 149.026632 
L 104.735497 146.014339 
L 111.780952 142.316536 
L 118.826406 140.381711 
L 125.871861 136.736752 
L 132.917315 136.44171 
L 139.96277 136.751003 
L 147.008224 136.348963 
L 154.053679 133.327677 
L 161.099134 131.222059 
L 168.144588 129.609498 
L 175.190043 126.911853 
L 182.235497 124.018554 
L 189.280952 124.274197 
L 196.326406 124.738341 
L 203.371861 120.204956 
L 210.417315 117.020108 
L 217.46277 114.997141 
L 224.508224 113.190405 
L 231.553679 110.892114 
L 238.599134 108.742669 
L 245.644588 108.29529 
L 252.690043 106.879931 
L 259.735497 104.064862 
L 266.780952 104.170525 
L 273.826406 101.118821 
L 280.871861 97.298862 
L 287.917315 94.878762 
L 294.96277 94.477343 
L 302.008224 93.342068 
L 309.053679 91.784605 
L 316.099134 90.064492 
L 323.144588 88.644846 
L 330.190043 87.453008 
L 337.235497 87.332179 
L 344.280952 87.420757 
L 351.326406 86.053057 
L 358.371861 88.330974 
L 365.417315 87.828776 
L 372.46277 85.681383 
L 379.508224 85.740078 
L 386.553679 85.343694 
L 393.599134 84.284292 
L 400.644588 81.786859 
L 407.690043 79.577157 
L 414.735497 77.544784 
L 421.780952 75.759867 
L 428.826406 75.262048 
L 435.871861 76.155425 
L 442.917315 74.235358 
L 449.96277 72.904513 
L 457.008224 72.712289 
L 464.053679 71.836332 
L 471.099134 71.168396 
L 478.144588 70.670194 
L 485.190043 70.164019 
L 492.235497 69.187381 
L 499.280952 68.524607 
L 506.326406 69.325736 
L 513.371861 71.442564 
L 520.417315 69.075877 
L 527.46277 70.014533 
L 534.508224 69.812776 
" clip-path="url(#pd78b637248)" style="fill: none; stroke: #00308f; stroke-width: 1.5; stroke-linecap: round"/>
   </g>
   <g id="line2d_46">
    <path d="M 90.644588 193.542564 
L 97.690043 192.307844 
L 104.735497 191.990147 
L 111.780952 190.057605 
L 118.826406 187.932095 
L 125.871861 186.439093 
L 132.917315 183.528604 
L 139.96277 181.429636 
L 147.008224 178.11132 
L 154.053679 174.369427 
L 161.099134 171.92733 
L 168.144588 169.267396 
L 175.190043 167.586442 
L 182.235497 163.584038 
L 189.280952 161.148953 
L 196.326406 159.211799 
L 203.371861 155.638209 
L 210.417315 152.311517 
L 217.46277 149.380765 
L 224.508224 147.135482 
L 231.553679 148.198162 
L 238.599134 146.403119 
L 245.644588 144.268676 
L 252.690043 140.609583 
L 259.735497 137.704327 
L 266.780952 135.537175 
L 273.826406 132.322004 
L 280.871861 128.691999 
L 287.917315 125.276356 
L 294.96277 123.346108 
L 302.008224 120.560642 
L 309.053679 117.507162 
L 316.099134 115.864202 
L 323.144588 114.003109 
L 330.190043 111.408102 
L 337.235497 108.708731 
L 344.280952 106.515211 
L 351.326406 104.847485 
L 358.371861 106.824851 
L 365.417315 103.474503 
L 372.46277 100.886236 
L 379.508224 99.574793 
L 386.553679 97.308205 
L 393.599134 96.456018 
L 400.644588 94.913602 
L 407.690043 93.590533 
L 414.735497 92.069669 
L 421.780952 90.374722 
L 428.826406 89.645152 
L 435.871861 89.55437 
L 442.917315 87.544799 
L 449.96277 86.603465 
L 457.008224 85.993034 
L 464.053679 85.114431 
L 471.099134 84.280858 
L 478.144588 83.540088 
L 485.190043 82.712014 
L 492.235497 81.77749 
L 499.280952 80.974191 
L 506.326406 80.356203 
L 513.371861 80.63685 
L 520.417315 79.202453 
L 527.46277 78.28879 
L 534.508224 77.869333 
" clip-path="url(#pd78b637248)" style="fill: none; stroke-dasharray: 5.55,2.4; stroke-dashoffset: 0; stroke: #00308f; stroke-width: 1.5"/>
   </g>
   <g id="line2d_47">
    <path d="M 90.644588 233.572996 
L 97.690043 233.127026 
L 104.735497 232.936374 
L 111.780952 231.776389 
L 118.826406 230.162442 
L 125.871861 231.782773 
L 132.917315 232.511686 
L 139.96277 230.726354 
L 147.008224 230.342297 
L 154.053679 228.977853 
L 161.099134 228.047066 
L 168.144588 228.241062 
L 175.190043 229.159896 
L 182.235497 228.832554 
L 189.280952 229.189166 
L 196.326406 227.037033 
L 203.371861 227.221847 
L 210.417315 225.638229 
L 217.46277 224.534416 
L 224.508224 227.045575 
L 231.553679 225.63957 
L 238.599134 224.464933 
L 245.644588 224.083206 
L 252.690043 222.505683 
L 259.735497 222.014673 
L 266.780952 221.066023 
L 273.826406 220.263286 
L 280.871861 219.709196 
L 287.917315 217.394901 
L 294.96277 216.203377 
L 302.008224 215.131846 
L 309.053679 215.478804 
L 316.099134 214.401196 
L 323.144588 213.544688 
L 330.190043 212.083104 
L 337.235497 210.329673 
L 344.280952 208.570553 
L 351.326406 207.893316 
L 358.371861 206.534961 
L 365.417315 204.346475 
L 372.46277 203.703526 
L 379.508224 202.744894 
L 386.553679 202.09872 
L 393.599134 200.169264 
L 400.644588 198.203667 
L 407.690043 196.215236 
L 414.735497 194.158457 
L 421.780952 192.204991 
L 428.826406 191.670775 
L 435.871861 189.630861 
L 442.917315 187.392393 
L 449.96277 186.154963 
L 457.008224 184.840405 
L 464.053679 183.224532 
L 471.099134 181.273384 
L 478.144588 179.125184 
L 485.190043 176.896649 
L 492.235497 175.107101 
L 499.280952 173.400847 
L 506.326406 172.485052 
L 513.371861 174.765924 
L 520.417315 171.974941 
L 527.46277 169.96923 
L 534.508224 167.820933 
" clip-path="url(#pd78b637248)" style="fill: none; stroke-dasharray: 1.5,2.475; stroke-dashoffset: 0; stroke: #00308f; stroke-width: 1.5"/>
   </g>
   <g id="line2d_48">
    <path d="M 90.644588 241.819707 
L 97.690043 251.999914 
L 104.735497 254.167051 
L 111.780952 251.741151 
L 118.826406 246.991156 
L 125.871861 242.606718 
L 132.917315 240.185069 
L 139.96277 242.996739 
L 147.008224 245.24153 
L 154.053679 240.978354 
L 161.099134 236.062492 
L 168.144588 234.716735 
L 175.190043 234.293407 
L 182.235497 232.57935 
L 189.280952 232.507432 
L 196.326406 230.329733 
L 203.371861 231.363336 
L 210.417315 229.403528 
L 217.46277 226.302163 
L 224.508224 224.326281 
L 231.553679 222.249627 
L 238.599134 221.025933 
L 245.644588 218.661106 
L 252.690043 215.760284 
L 259.735497 211.523043 
L 266.780952 207.810919 
L 273.826406 205.471304 
L 280.871861 202.359416 
L 287.917315 199.378525 
L 294.96277 198.524143 
L 302.008224 197.738799 
L 309.053679 195.263888 
L 316.099134 191.276476 
L 323.144588 187.362672 
L 330.190043 183.688989 
L 337.235497 180.615055 
L 344.280952 177.836874 
L 351.326406 175.257216 
L 358.371861 173.079633 
L 365.417315 170.927591 
L 372.46277 168.496676 
L 379.508224 166.092448 
L 386.553679 163.427263 
L 393.599134 160.473961 
L 400.644588 157.488427 
L 407.690043 154.119011 
L 414.735497 150.348871 
L 421.780952 146.127378 
L 428.826406 143.254049 
L 435.871861 140.451736 
L 442.917315 137.273293 
L 449.96277 134.441302 
L 457.008224 132.165406 
L 464.053679 129.915349 
L 471.099134 127.757962 
L 478.144588 125.70283 
L 485.190043 123.704387 
L 492.235497 121.686164 
L 499.280952 119.683529 
L 506.326406 117.891797 
L 513.371861 117.239261 
L 520.417315 114.590275 
L 527.46277 113.61328 
L 534.508224 111.90488 
" clip-path="url(#pd78b637248)" style="fill: none; stroke-dasharray: 9.6,2.4,1.5,2.4; stroke-dashoffset: 0; stroke: #00308f; stroke-width: 1.5"/>
   </g>
   <g id="line2d_49">
    <path d="M 90.644588 151.685223 
L 97.690043 150.842729 
L 104.735497 149.711132 
L 111.780952 148.789712 
L 118.826406 147.369997 
L 125.871861 146.25119 
L 132.917315 145.192292 
L 139.96277 144.653344 
L 147.008224 143.428779 
L 154.053679 142.197948 
L 161.099134 141.67065 
L 168.144588 140.966329 
L 175.190043 139.811903 
L 182.235497 138.41079 
L 189.280952 138.417683 
L 196.326406 138.851329 
L 203.371861 137.760406 
L 210.417315 137.034089 
L 217.46277 136.284975 
L 224.508224 135.511442 
L 231.553679 135.470348 
L 238.599134 135.419233 
L 245.644588 135.913577 
L 252.690043 135.654801 
L 259.735497 134.717567 
L 266.780952 134.089918 
L 273.826406 133.581285 
L 280.871861 132.959036 
L 287.917315 132.056892 
L 294.96277 131.422628 
L 302.008224 131.093506 
L 309.053679 131.232861 
L 316.099134 131.105971 
L 323.144588 131.030496 
L 330.190043 130.454456 
L 337.235497 129.943203 
L 344.280952 129.268973 
L 351.326406 128.472647 
L 358.371861 128.008725 
L 365.417315 127.309626 
L 372.46277 126.290013 
L 379.508224 126.065851 
L 386.553679 125.744992 
L 393.599134 125.158345 
L 400.644588 124.132688 
L 407.690043 123.250187 
L 414.735497 122.227195 
L 421.780952 121.221326 
L 428.826406 120.956733 
L 435.871861 121.813803 
L 442.917315 120.752622 
L 449.96277 120.0678 
L 457.008224 119.59189 
L 464.053679 119.062584 
L 471.099134 118.445591 
L 478.144588 117.819101 
L 485.190043 117.284994 
L 492.235497 116.53924 
L 499.280952 115.835692 
L 506.326406 115.3241 
L 513.371861 116.640211 
L 520.417315 114.919637 
L 527.46277 114.175902 
L 534.508224 113.593299 
" clip-path="url(#pd78b637248)" style="fill: none; stroke: #007fff; stroke-width: 1.5; stroke-linecap: round"/>
   </g>
   <g id="line2d_50">
    <path d="M 90.644588 97.219122 
L 97.690043 97.015618 
L 104.735497 95.568085 
L 111.780952 94.62134 
L 118.826406 93.218128 
L 125.871861 91.582296 
L 132.917315 89.883975 
L 139.96277 89.42811 
L 147.008224 88.209535 
L 154.053679 87.524049 
L 161.099134 87.837331 
L 168.144588 87.184982 
L 175.190043 85.846978 
L 182.235497 84.348456 
L 189.280952 84.829188 
L 196.326406 85.222781 
L 203.371861 83.80349 
L 210.417315 82.642778 
L 217.46277 81.213515 
L 224.508224 80.548621 
L 231.553679 80.950431 
L 238.599134 80.44693 
L 245.644588 81.362632 
L 252.690043 80.184491 
L 259.735497 78.163123 
L 266.780952 77.10671 
L 273.826406 76.287735 
L 280.871861 75.461304 
L 287.917315 74.409766 
L 294.96277 73.530646 
L 302.008224 73.286676 
L 309.053679 73.763761 
L 316.099134 73.078503 
L 323.144588 72.6175 
L 330.190043 71.718015 
L 337.235497 71.236435 
L 344.280952 70.397632 
L 351.326406 69.358307 
L 358.371861 68.294969 
L 365.417315 67.129538 
L 372.46277 66.177148 
L 379.508224 66.189942 
L 386.553679 65.939498 
L 393.599134 65.31277 
L 400.644588 64.371532 
L 407.690043 63.545079 
L 414.735497 62.956507 
L 421.780952 62.615366 
L 428.826406 62.890244 
L 435.871861 64.041788 
L 442.917315 63.437472 
L 449.96277 63.16485 
L 457.008224 62.65967 
L 464.053679 62.196382 
L 471.099134 61.615434 
L 478.144588 60.899861 
L 485.190043 60.543716 
L 492.235497 59.950837 
L 499.280952 59.159262 
L 506.326406 58.504808 
L 513.371861 59.564018 
L 520.417315 57.753976 
L 527.46277 57.242249 
L 534.508224 56.575486 
" clip-path="url(#pd78b637248)" style="fill: none; stroke-dasharray: 5.55,2.4; stroke-dashoffset: 0; stroke: #007fff; stroke-width: 1.5"/>
   </g>
   <g id="line2d_51">
    <path d="M 90.644588 152.031601 
L 97.690043 150.552569 
L 104.735497 149.062278 
L 111.780952 146.737331 
L 118.826406 148.624791 
L 125.871861 146.936416 
L 132.917315 144.555863 
L 139.96277 141.393001 
L 147.008224 137.772669 
L 154.053679 133.990547 
L 161.099134 130.193692 
L 168.144588 126.934972 
L 175.190043 123.418368 
L 182.235497 120.707373 
L 189.280952 119.296083 
L 196.326406 118.486658 
L 203.371861 116.562684 
L 210.417315 114.831485 
L 217.46277 112.757579 
L 224.508224 110.160932 
L 231.553679 107.398488 
L 238.599134 105.59457 
L 245.644588 104.777974 
L 252.690043 102.496151 
L 259.735497 100.337396 
L 266.780952 100.58881 
L 273.826406 100.117098 
L 280.871861 97.227455 
L 287.917315 94.540763 
L 294.96277 92.315048 
L 302.008224 90.505637 
L 309.053679 89.307259 
L 316.099134 88.17636 
L 323.144588 85.428895 
L 330.190043 82.989833 
L 337.235497 81.704566 
L 344.280952 80.667218 
L 351.326406 79.137841 
L 358.371861 80.991377 
L 365.417315 79.418842 
L 372.46277 77.133249 
L 379.508224 78.379597 
L 386.553679 77.410088 
L 393.599134 75.454241 
L 400.644588 72.738121 
L 407.690043 71.167097 
L 414.735497 69.35253 
L 421.780952 67.875831 
L 428.826406 69.023497 
L 435.871861 69.977275 
L 442.917315 66.085031 
L 449.96277 64.782358 
L 457.008224 64.15933 
L 464.053679 63.140232 
L 471.099134 62.294262 
L 478.144588 61.71733 
L 485.190043 60.981436 
L 492.235497 59.552968 
L 499.280952 58.566531 
L 506.326406 58.503187 
L 513.371861 59.703553 
L 520.417315 55.271701 
L 527.46277 55.120569 
L 534.508224 56.371879 
" clip-path="url(#pd78b637248)" style="fill: none; stroke-dasharray: 1.5,2.475; stroke-dashoffset: 0; stroke: #007fff; stroke-width: 1.5"/>
   </g>
   <g id="line2d_52">
    <path d="M 90.644588 190.13829 
L 97.690043 190.570715 
L 104.735497 189.451765 
L 111.780952 188.259695 
L 118.826406 187.484047 
L 125.871861 186.817044 
L 132.917315 186.994355 
L 139.96277 188.093045 
L 147.008224 187.93299 
L 154.053679 185.949857 
L 161.099134 184.33093 
L 168.144588 182.742314 
L 175.190043 182.653847 
L 182.235497 182.149817 
L 189.280952 180.659 
L 196.326406 181.675699 
L 203.371861 180.936965 
L 210.417315 180.951276 
L 217.46277 181.95854 
L 224.508224 181.662136 
L 231.553679 181.393223 
L 238.599134 182.623756 
L 245.644588 184.010036 
L 252.690043 185.815306 
L 259.735497 185.996063 
L 266.780952 186.272009 
L 273.826406 186.592763 
L 280.871861 186.583348 
L 287.917315 186.071889 
L 294.96277 186.232801 
L 302.008224 186.379051 
L 309.053679 187.152217 
L 316.099134 188.155522 
L 323.144588 189.319873 
L 330.190043 189.853072 
L 337.235497 189.639722 
L 344.280952 188.864206 
L 351.326406 188.39815 
L 358.371861 188.428851 
L 365.417315 188.562301 
L 372.46277 188.297011 
L 379.508224 187.81034 
L 386.553679 186.659313 
L 393.599134 186.227287 
L 400.644588 185.001918 
L 407.690043 183.963414 
L 414.735497 182.919271 
L 421.780952 181.85 
L 428.826406 181.088911 
L 435.871861 180.964166 
L 442.917315 179.951224 
L 449.96277 179.431162 
L 457.008224 179.274562 
L 464.053679 178.53808 
L 471.099134 177.868261 
L 478.144588 177.820121 
L 485.190043 178.299395 
L 492.235497 178.361171 
L 499.280952 178.337267 
L 506.326406 178.339915 
L 513.371861 179.860623 
L 520.417315 179.32698 
L 527.46277 178.968737 
L 534.508224 178.833819 
" clip-path="url(#pd78b637248)" style="fill: none; stroke-dasharray: 9.6,2.4,1.5,2.4; stroke-dashoffset: 0; stroke: #007fff; stroke-width: 1.5"/>
   </g>
   <g id="line2d_53">
    <path d="M 90.644588 183.00932 
L 97.690043 176.411524 
L 104.735497 177.083273 
L 111.780952 173.648269 
L 118.826406 176.800893 
L 125.871861 176.498657 
L 132.917315 178.384917 
L 139.96277 177.61042 
L 147.008224 180.572987 
L 154.053679 179.556534 
L 161.099134 180.237745 
L 168.144588 179.380503 
L 175.190043 177.233933 
L 182.235497 173.987821 
L 189.280952 171.700017 
L 196.326406 171.922987 
L 203.371861 165.417782 
L 210.417315 163.8607 
L 217.46277 163.0508 
L 224.508224 162.4842 
L 231.553679 166.542978 
L 238.599134 165.144757 
L 245.644588 163.781211 
L 252.690043 163.958423 
L 259.735497 162.787496 
L 266.780952 160.837065 
L 273.826406 158.019498 
L 280.871861 155.453597 
L 287.917315 153.510999 
L 294.96277 152.321313 
L 302.008224 150.264565 
L 309.053679 149.18782 
L 316.099134 147.538682 
L 323.144588 146.293124 
L 330.190043 145.417037 
L 337.235497 144.314534 
L 344.280952 142.856648 
L 351.326406 141.44335 
L 358.371861 139.843863 
L 365.417315 139.412502 
L 372.46277 137.133464 
L 379.508224 136.306962 
L 386.553679 136.007172 
L 393.599134 134.345085 
L 400.644588 133.152304 
L 407.690043 132.765972 
L 414.735497 131.351039 
L 421.780952 129.662324 
L 428.826406 128.048989 
L 435.871861 127.059645 
L 442.917315 125.723395 
L 449.96277 124.456418 
L 457.008224 123.413146 
L 464.053679 122.401597 
L 471.099134 121.22112 
L 478.144588 120.068005 
L 485.190043 118.839147 
L 492.235497 117.593373 
L 499.280952 116.313993 
L 506.326406 115.383345 
L 513.371861 120.575517 
L 520.417315 119.478479 
L 527.46277 116.569367 
L 534.508224 114.310905 
" clip-path="url(#pd78b637248)" style="fill: none; stroke: #6f00ff; stroke-width: 1.5; stroke-linecap: round"/>
   </g>
   <g id="patch_3">
    <path d="M 68.451406 264.119375 
L 68.451406 42.359375 
" style="fill: none"/>
   </g>
   <g id="patch_4">
    <path d="M 556.701406 264.119375 
L 556.701406 42.359375 
" style="fill: none"/>
   </g>
   <g id="patch_5">
    <path d="M 68.451406 264.119375 
L 556.701406 264.119375 
" style="fill: none"/>
   </g>
   <g id="patch_6">
    <path d="M 68.451406 42.359375 
L 556.701406 42.359375 
" style="fill: none"/>
   </g>
   <g id="text_13">
    <!-- The convergence of different countries -->
    <g transform="translate(344.422656 22.359375) scale(0.2 -0.2)">
     <defs>
      <path id="AtkinsonHyperlegible-Bold-54" d="M 1472 0 
L 1472 3386 
L 96 3386 
L 96 4275 
L 3853 4275 
L 3853 3386 
L 2477 3386 
L 2477 0 
L 1472 0 
z
" transform="scale(0.015625)"/>
      <path id="AtkinsonHyperlegible-Bold-68" d="M 320 0 
L 320 4275 
L 1293 4275 
L 1293 2752 
Q 1402 2931 1654 3097 
Q 1907 3264 2272 3264 
Q 2886 3264 3113 2921 
Q 3341 2579 3341 1933 
L 3341 0 
L 2368 0 
L 2368 1690 
Q 2368 1914 2342 2099 
Q 2317 2285 2217 2397 
Q 2118 2509 1882 2509 
Q 1574 2509 1433 2288 
Q 1293 2067 1293 1632 
L 1293 0 
L 320 0 
z
" transform="scale(0.015625)"/>
      <path id="AtkinsonHyperlegible-Bold-63" d="M 1779 -77 
Q 1254 -77 892 134 
Q 531 346 342 726 
Q 154 1107 154 1606 
Q 154 2106 358 2480 
Q 563 2854 931 3059 
Q 1299 3264 1779 3264 
Q 2054 3264 2326 3187 
Q 2598 3110 2832 2928 
Q 3066 2746 3213 2432 
L 2400 2138 
Q 2323 2342 2172 2425 
Q 2022 2509 1837 2509 
Q 1664 2509 1504 2422 
Q 1344 2336 1245 2137 
Q 1146 1939 1146 1600 
Q 1146 1254 1248 1052 
Q 1350 851 1507 764 
Q 1664 678 1837 678 
Q 2042 678 2182 758 
Q 2323 838 2406 979 
L 3200 691 
Q 3040 403 2803 233 
Q 2566 64 2300 -6 
Q 2035 -77 1779 -77 
z
" transform="scale(0.015625)"/>
      <path id="AtkinsonHyperlegible-Bold-76" d="M 1133 0 
L 0 3174 
L 1005 3174 
L 1683 1011 
L 2362 3174 
L 3366 3174 
L 2227 0 
L 1133 0 
z
" transform="scale(0.015625)"/>
      <path id="AtkinsonHyperlegible-Bold-67" d="M 1875 -1299 
Q 1613 -1299 1344 -1232 
Q 1075 -1165 844 -998 
Q 614 -832 467 -544 
L 1261 -256 
Q 1350 -429 1516 -493 
Q 1683 -557 1850 -557 
Q 2157 -557 2342 -413 
Q 2528 -269 2528 45 
L 2528 614 
Q 2323 358 2057 236 
Q 1792 115 1523 115 
Q 1178 115 864 300 
Q 550 486 352 832 
Q 154 1178 154 1658 
Q 154 2214 352 2569 
Q 550 2925 857 3097 
Q 1165 3270 1491 3270 
Q 1792 3270 2070 3136 
Q 2349 3002 2528 2739 
L 2656 3174 
L 3494 3174 
L 3494 237 
Q 3494 -557 3065 -928 
Q 2637 -1299 1875 -1299 
z
M 1869 870 
Q 2061 870 2217 944 
Q 2374 1018 2470 1197 
Q 2566 1376 2566 1683 
Q 2566 2150 2358 2329 
Q 2150 2509 1869 2509 
Q 1581 2509 1373 2317 
Q 1165 2125 1165 1709 
Q 1165 1286 1373 1078 
Q 1581 870 1869 870 
z
" transform="scale(0.015625)"/>
      <path id="AtkinsonHyperlegible-Bold-66" d="M 557 0 
L 557 2432 
L 32 2432 
L 32 3174 
L 557 3174 
L 557 3693 
Q 557 4070 685 4281 
Q 813 4493 1081 4576 
Q 1350 4659 1779 4659 
L 2221 4659 
L 2221 3891 
L 1952 3891 
Q 1696 3891 1613 3840 
Q 1530 3789 1530 3603 
L 1530 3174 
L 2221 3174 
L 2221 2432 
L 1530 2432 
L 1530 0 
L 557 0 
z
" transform="scale(0.015625)"/>
      <path id="AtkinsonHyperlegible-Bold-64" d="M 1555 -77 
Q 1146 -77 829 128 
Q 512 333 333 713 
Q 154 1094 154 1613 
Q 154 2131 333 2499 
Q 512 2867 829 3065 
Q 1146 3264 1555 3264 
Q 1818 3264 2093 3133 
Q 2368 3002 2522 2739 
L 2522 4275 
L 3494 4275 
L 3494 1242 
Q 3494 1005 3516 678 
Q 3539 352 3603 0 
L 2675 0 
L 2547 429 
Q 2349 154 2083 38 
Q 1818 -77 1555 -77 
z
M 1869 678 
Q 2150 678 2358 889 
Q 2566 1101 2566 1594 
Q 2566 2080 2358 2294 
Q 2150 2509 1869 2509 
Q 1581 2509 1373 2278 
Q 1165 2048 1165 1613 
Q 1165 1171 1373 924 
Q 1581 678 1869 678 
z
" transform="scale(0.015625)"/>
      <path id="AtkinsonHyperlegible-Bold-69" d="M 1248 3699 
Q 1011 3699 841 3868 
Q 672 4038 672 4275 
Q 672 4518 841 4684 
Q 1011 4851 1248 4851 
Q 1491 4851 1657 4684 
Q 1824 4518 1824 4275 
Q 1824 4038 1657 3868 
Q 1491 3699 1248 3699 
z
M 755 0 
L 755 2432 
L 154 2432 
L 154 3174 
L 1734 3174 
L 1734 0 
L 755 0 
z
" transform="scale(0.015625)"/>
     </defs>
     <use xlink:href="#AtkinsonHyperlegible-Bold-54"/>
     <use xlink:href="#AtkinsonHyperlegible-Bold-68" x="61.699997"/>
     <use xlink:href="#AtkinsonHyperlegible-Bold-65" x="118.899994"/>
     <use xlink:href="#AtkinsonHyperlegible-Bold-20" x="175.499985"/>
     <use xlink:href="#AtkinsonHyperlegible-Bold-63" x="207.499969"/>
     <use xlink:href="#AtkinsonHyperlegible-Bold-6f" x="259.499954"/>
     <use xlink:href="#AtkinsonHyperlegible-Bold-6e" x="316.799942"/>
     <use xlink:href="#AtkinsonHyperlegible-Bold-76" x="373.999939"/>
     <use xlink:href="#AtkinsonHyperlegible-Bold-65" x="426.59993"/>
     <use xlink:href="#AtkinsonHyperlegible-Bold-72" x="483.199921"/>
     <use xlink:href="#AtkinsonHyperlegible-Bold-67" x="520.399918"/>
     <use xlink:href="#AtkinsonHyperlegible-Bold-65" x="580.099915"/>
     <use xlink:href="#AtkinsonHyperlegible-Bold-6e" x="636.699905"/>
     <use xlink:href="#AtkinsonHyperlegible-Bold-63" x="693.899902"/>
     <use xlink:href="#AtkinsonHyperlegible-Bold-65" x="745.899887"/>
     <use xlink:href="#AtkinsonHyperlegible-Bold-20" x="802.499878"/>
     <use xlink:href="#AtkinsonHyperlegible-Bold-6f" x="834.499863"/>
     <use xlink:href="#AtkinsonHyperlegible-Bold-66" x="891.79985"/>
     <use xlink:href="#AtkinsonHyperlegible-Bold-20" x="928.499847"/>
     <use xlink:href="#AtkinsonHyperlegible-Bold-64" x="960.499832"/>
     <use xlink:href="#AtkinsonHyperlegible-Bold-69" x="1020.099823"/>
     <use xlink:href="#AtkinsonHyperlegible-Bold-66" x="1051.599808"/>
     <use xlink:href="#AtkinsonHyperlegible-Bold-66" x="1088.299805"/>
     <use xlink:href="#AtkinsonHyperlegible-Bold-65" x="1124.999802"/>
     <use xlink:href="#AtkinsonHyperlegible-Bold-72" x="1181.599792"/>
     <use xlink:href="#AtkinsonHyperlegible-Bold-65" x="1218.799789"/>
     <use xlink:href="#AtkinsonHyperlegible-Bold-6e" x="1275.39978"/>
     <use xlink:href="#AtkinsonHyperlegible-Bold-74" x="1332.599777"/>
     <use xlink:href="#AtkinsonHyperlegible-Bold-20" x="1370.499771"/>
     <use xlink:href="#AtkinsonHyperlegible-Bold-63" x="1402.499756"/>
     <use xlink:href="#AtkinsonHyperlegible-Bold-6f" x="1454.499741"/>
     <use xlink:href="#AtkinsonHyperlegible-Bold-75" x="1511.799728"/>
     <use xlink:href="#AtkinsonHyperlegible-Bold-6e" x="1568.799713"/>
     <use xlink:href="#AtkinsonHyperlegible-Bold-74" x="1625.99971"/>
     <use xlink:href="#AtkinsonHyperlegible-Bold-72" x="1663.899704"/>
     <use xlink:href="#AtkinsonHyperlegible-Bold-69" x="1701.099701"/>
     <use xlink:href="#AtkinsonHyperlegible-Bold-65" x="1732.599686"/>
     <use xlink:href="#AtkinsonHyperlegible-Bold-73" x="1789.199677"/>
    </g>
   </g>
   <g id="legend_1">
    <g id="line2d_54">
     <path d="M 548.585 81.020312 
L 561.585 81.020312 
L 574.585 81.020312 
" style="fill: none; stroke: #00308f; stroke-width: 1.5; stroke-linecap: round"/>
    </g>
    <g id="text_14">
     <!-- Hong Kong SAR, China -->
     <g transform="translate(584.985 85.570312) scale(0.13 -0.13)">
      <defs>
       <path id="AtkinsonHyperlegible-Regular-48" d="M 486 0 
L 486 4275 
L 1088 4275 
L 1088 2458 
L 3328 2458 
L 3328 4275 
L 3930 4275 
L 3930 0 
L 3328 0 
L 3328 1939 
L 1088 1939 
L 1088 0 
L 486 0 
z
" transform="scale(0.015625)"/>
       <path id="AtkinsonHyperlegible-Regular-6f" d="M 1766 -77 
Q 1491 -77 1222 19 
Q 954 115 733 316 
Q 512 518 377 832 
Q 243 1146 243 1574 
Q 243 2003 377 2316 
Q 512 2630 733 2832 
Q 954 3034 1222 3130 
Q 1491 3226 1766 3226 
Q 2042 3226 2314 3130 
Q 2586 3034 2806 2832 
Q 3027 2630 3158 2316 
Q 3290 2003 3290 1574 
Q 3290 1146 3158 832 
Q 3027 518 2806 316 
Q 2586 115 2314 19 
Q 2042 -77 1766 -77 
z
M 1766 397 
Q 1997 397 2214 521 
Q 2432 646 2573 905 
Q 2714 1165 2714 1574 
Q 2714 1984 2573 2243 
Q 2432 2502 2214 2627 
Q 1997 2752 1766 2752 
Q 1542 2752 1321 2627 
Q 1101 2502 960 2243 
Q 819 1984 819 1574 
Q 819 1165 960 905 
Q 1101 646 1321 521 
Q 1542 397 1766 397 
z
" transform="scale(0.015625)"/>
       <path id="AtkinsonHyperlegible-Regular-6e" d="M 448 0 
L 448 3174 
L 845 3174 
L 986 2694 
Q 1120 2918 1363 3072 
Q 1606 3226 2010 3226 
Q 2586 3226 2822 2890 
Q 3059 2554 3059 2010 
L 3059 0 
L 2522 0 
L 2522 1850 
Q 2522 2093 2477 2301 
Q 2432 2509 2281 2637 
Q 2131 2765 1824 2765 
Q 1434 2765 1210 2499 
Q 986 2234 986 1722 
L 986 0 
L 448 0 
z
" transform="scale(0.015625)"/>
       <path id="AtkinsonHyperlegible-Regular-67" d="M 1754 -1229 
Q 1498 -1229 1245 -1155 
Q 992 -1082 797 -915 
Q 602 -749 518 -486 
L 1056 -339 
Q 1146 -589 1350 -672 
Q 1555 -755 1754 -755 
Q 2246 -755 2422 -518 
Q 2598 -282 2598 179 
L 2598 602 
Q 2451 352 2208 205 
Q 1965 58 1587 58 
Q 1235 58 928 240 
Q 621 422 432 777 
Q 243 1133 243 1638 
Q 243 2150 432 2502 
Q 621 2854 928 3040 
Q 1235 3226 1587 3226 
Q 1965 3226 2208 3075 
Q 2451 2925 2598 2675 
L 2746 3174 
L 3136 3174 
L 3136 301 
Q 3136 -454 2832 -841 
Q 2528 -1229 1754 -1229 
z
M 1722 506 
Q 1965 506 2166 621 
Q 2368 736 2493 985 
Q 2618 1235 2618 1638 
Q 2618 2042 2493 2291 
Q 2368 2541 2166 2653 
Q 1965 2765 1722 2765 
Q 1331 2765 1078 2473 
Q 826 2182 826 1638 
Q 826 1094 1078 800 
Q 1331 506 1722 506 
z
" transform="scale(0.015625)"/>
       <path id="AtkinsonHyperlegible-Regular-20" transform="scale(0.015625)"/>
       <path id="AtkinsonHyperlegible-Regular-53" d="M 1894 -77 
Q 1542 -77 1209 32 
Q 877 141 624 365 
Q 371 589 256 934 
L 813 1101 
Q 890 870 1062 720 
Q 1235 570 1462 499 
Q 1690 429 1920 429 
Q 2176 429 2406 512 
Q 2637 595 2781 764 
Q 2925 934 2925 1190 
Q 2925 1453 2733 1606 
Q 2541 1760 2067 1882 
L 1523 2003 
Q 1229 2080 944 2208 
Q 659 2336 476 2573 
Q 294 2810 294 3206 
Q 294 3571 521 3827 
Q 749 4083 1110 4217 
Q 1472 4352 1862 4352 
Q 2163 4352 2454 4265 
Q 2746 4179 2979 4003 
Q 3213 3827 3347 3552 
L 2797 3392 
Q 2675 3616 2403 3731 
Q 2131 3846 1837 3846 
Q 1606 3846 1395 3772 
Q 1184 3699 1049 3552 
Q 915 3405 915 3181 
Q 915 2970 1040 2842 
Q 1165 2714 1373 2640 
Q 1581 2566 1830 2509 
L 2298 2406 
Q 2624 2330 2912 2195 
Q 3200 2061 3379 1817 
Q 3558 1574 3558 1165 
Q 3558 870 3417 636 
Q 3277 403 3040 246 
Q 2803 90 2505 6 
Q 2208 -77 1894 -77 
z
" transform="scale(0.015625)"/>
       <path id="AtkinsonHyperlegible-Regular-41" d="M 64 0 
L 1670 4282 
L 2342 4282 
L 3942 0 
L 3302 0 
L 2976 934 
L 1030 934 
L 704 0 
L 64 0 
z
M 1216 1453 
L 2790 1453 
L 2003 3674 
L 1216 1453 
z
" transform="scale(0.015625)"/>
       <path id="AtkinsonHyperlegible-Regular-52" d="M 486 0 
L 486 4275 
L 1843 4275 
Q 2368 4275 2768 4182 
Q 3168 4090 3395 3824 
Q 3622 3558 3622 3046 
Q 3622 2758 3532 2508 
Q 3443 2259 3190 2086 
Q 2938 1914 2438 1843 
L 3763 0 
L 3027 0 
L 1728 1798 
L 1088 1798 
L 1088 0 
L 486 0 
z
M 1088 2304 
L 1888 2304 
Q 2202 2304 2454 2349 
Q 2707 2394 2857 2550 
Q 3008 2707 3008 3034 
Q 3008 3366 2857 3520 
Q 2707 3674 2454 3722 
Q 2202 3770 1888 3770 
L 1088 3770 
L 1088 2304 
z
" transform="scale(0.015625)"/>
       <path id="AtkinsonHyperlegible-Regular-2c" d="M 288 -851 
L 589 -70 
Q 442 -45 342 70 
Q 243 186 243 339 
Q 243 506 364 627 
Q 486 749 653 749 
Q 826 749 947 627 
Q 1069 506 1069 339 
Q 1069 262 1037 179 
L 640 -851 
L 288 -851 
z
" transform="scale(0.015625)"/>
       <path id="AtkinsonHyperlegible-Regular-43" d="M 2259 -77 
Q 1651 -77 1216 208 
Q 781 493 550 992 
Q 320 1491 320 2144 
Q 320 2810 566 3306 
Q 813 3802 1261 4077 
Q 1709 4352 2310 4352 
Q 2848 4352 3280 4102 
Q 3712 3853 3930 3386 
L 3405 3194 
Q 3264 3482 2979 3664 
Q 2694 3846 2278 3846 
Q 1901 3846 1597 3654 
Q 1293 3462 1113 3081 
Q 934 2701 934 2144 
Q 934 1606 1107 1222 
Q 1280 838 1590 633 
Q 1901 429 2298 429 
Q 2714 429 2998 608 
Q 3283 787 3430 1082 
L 3955 890 
Q 3725 416 3277 169 
Q 2829 -77 2259 -77 
z
" transform="scale(0.015625)"/>
       <path id="AtkinsonHyperlegible-Regular-68" d="M 448 0 
L 448 4275 
L 986 4275 
L 986 2694 
Q 1120 2918 1363 3072 
Q 1606 3226 2010 3226 
Q 2586 3226 2822 2890 
Q 3059 2554 3059 2010 
L 3059 0 
L 2522 0 
L 2522 1850 
Q 2522 2093 2477 2301 
Q 2432 2509 2281 2637 
Q 2131 2765 1824 2765 
Q 1434 2765 1210 2499 
Q 986 2234 986 1722 
L 986 0 
L 448 0 
z
" transform="scale(0.015625)"/>
       <path id="AtkinsonHyperlegible-Regular-69" d="M 998 3776 
Q 838 3776 720 3894 
Q 602 4013 602 4179 
Q 602 4346 720 4461 
Q 838 4576 998 4576 
Q 1165 4576 1283 4461 
Q 1402 4346 1402 4179 
Q 1402 4013 1283 3894 
Q 1165 3776 998 3776 
z
M 730 0 
L 730 2746 
L 288 2746 
L 288 3174 
L 1267 3174 
L 1267 0 
L 730 0 
z
" transform="scale(0.015625)"/>
       <path id="AtkinsonHyperlegible-Regular-61" d="M 1338 -77 
Q 1037 -77 787 32 
Q 538 141 390 345 
Q 243 550 243 838 
Q 243 1216 508 1433 
Q 774 1651 1257 1769 
Q 1741 1888 2387 1958 
Q 2400 2362 2227 2579 
Q 2054 2797 1670 2797 
Q 1382 2797 1200 2665 
Q 1018 2534 966 2304 
L 448 2458 
Q 576 2822 905 3024 
Q 1235 3226 1664 3226 
Q 2323 3226 2627 2915 
Q 2931 2605 2931 1939 
L 2931 1197 
Q 2931 800 2963 512 
Q 2995 224 3040 0 
L 2547 0 
L 2419 435 
Q 2278 198 2016 60 
Q 1754 -77 1338 -77 
z
M 1453 352 
Q 1702 352 1926 441 
Q 2150 531 2291 745 
Q 2432 960 2432 1331 
L 2432 1530 
Q 1946 1478 1587 1404 
Q 1229 1331 1033 1200 
Q 838 1069 838 851 
Q 838 627 1001 489 
Q 1165 352 1453 352 
z
" transform="scale(0.015625)"/>
      </defs>
      <use xlink:href="#AtkinsonHyperlegible-Regular-48"/>
      <use xlink:href="#AtkinsonHyperlegible-Regular-6f" x="68.999985"/>
      <use xlink:href="#AtkinsonHyperlegible-Regular-6e" x="124.199982"/>
      <use xlink:href="#AtkinsonHyperlegible-Regular-67" x="178.799973"/>
      <use xlink:href="#AtkinsonHyperlegible-Regular-20" x="234.799957"/>
      <use xlink:href="#AtkinsonHyperlegible-Regular-4b" x="262.799942"/>
      <use xlink:href="#AtkinsonHyperlegible-Regular-6f" x="325.499939"/>
      <use xlink:href="#AtkinsonHyperlegible-Regular-6e" x="380.699936"/>
      <use xlink:href="#AtkinsonHyperlegible-Regular-67" x="435.299927"/>
      <use xlink:href="#AtkinsonHyperlegible-Regular-20" x="491.299911"/>
      <use xlink:href="#AtkinsonHyperlegible-Regular-53" x="519.299896"/>
      <use xlink:href="#AtkinsonHyperlegible-Regular-41" x="578.899887"/>
      <use xlink:href="#AtkinsonHyperlegible-Regular-52" x="641.499878"/>
      <use xlink:href="#AtkinsonHyperlegible-Regular-2c" x="703.299866"/>
      <use xlink:href="#AtkinsonHyperlegible-Regular-20" x="723.79985"/>
      <use xlink:href="#AtkinsonHyperlegible-Regular-43" x="751.799835"/>
      <use xlink:href="#AtkinsonHyperlegible-Regular-68" x="817.399826"/>
      <use xlink:href="#AtkinsonHyperlegible-Regular-69" x="871.999817"/>
      <use xlink:href="#AtkinsonHyperlegible-Regular-6e" x="899.799805"/>
      <use xlink:href="#AtkinsonHyperlegible-Regular-61" x="954.399796"/>
     </g>
    </g>
    <g id="line2d_55">
     <path d="M 548.585 99.116719 
L 561.585 99.116719 
L 574.585 99.116719 
" style="fill: none; stroke-dasharray: 5.55,2.4; stroke-dashoffset: 0; stroke: #00308f; stroke-width: 1.5"/>
    </g>
    <g id="text_15">
     <!-- Korea, Rep. -->
     <g transform="translate(584.985 103.666719) scale(0.13 -0.13)">
      <defs>
       <path id="AtkinsonHyperlegible-Regular-72" d="M 448 0 
L 448 3174 
L 838 3174 
L 1011 2586 
Q 1178 2874 1462 3050 
Q 1747 3226 2144 3226 
L 2144 2669 
Q 2099 2669 2051 2669 
Q 2003 2669 1958 2662 
Q 1414 2618 1200 2285 
Q 986 1952 986 1363 
L 986 0 
L 448 0 
z
" transform="scale(0.015625)"/>
       <path id="AtkinsonHyperlegible-Regular-65" d="M 1798 -77 
Q 1299 -77 953 144 
Q 608 365 425 739 
Q 243 1114 243 1581 
Q 243 2086 448 2454 
Q 653 2822 1001 3024 
Q 1350 3226 1786 3226 
Q 2163 3226 2451 3075 
Q 2739 2925 2928 2672 
Q 3117 2419 3203 2099 
Q 3290 1779 3264 1440 
L 819 1440 
Q 832 1043 995 812 
Q 1158 582 1382 489 
Q 1606 397 1798 397 
Q 2067 397 2249 483 
Q 2432 570 2541 710 
L 3059 557 
Q 2886 282 2566 102 
Q 2246 -77 1798 -77 
z
M 826 1869 
L 2694 1869 
Q 2694 2093 2582 2297 
Q 2470 2502 2268 2633 
Q 2067 2765 1786 2765 
Q 1549 2765 1337 2675 
Q 1126 2586 988 2387 
Q 851 2189 826 1869 
z
" transform="scale(0.015625)"/>
       <path id="AtkinsonHyperlegible-Regular-70" d="M 448 -1030 
L 448 3174 
L 838 3174 
L 986 2675 
Q 1133 2925 1389 3075 
Q 1645 3226 2016 3226 
Q 2381 3226 2691 3030 
Q 3002 2835 3190 2467 
Q 3379 2099 3379 1574 
Q 3379 1056 3190 685 
Q 3002 314 2691 118 
Q 2381 -77 2016 -77 
Q 1645 -77 1389 73 
Q 1133 224 986 480 
L 986 -1030 
L 448 -1030 
z
M 1875 384 
Q 2285 384 2531 697 
Q 2778 1011 2778 1574 
Q 2778 2144 2531 2454 
Q 2285 2765 1875 2765 
Q 1466 2765 1219 2454 
Q 973 2144 973 1574 
Q 973 1011 1219 697 
Q 1466 384 1875 384 
z
" transform="scale(0.015625)"/>
       <path id="AtkinsonHyperlegible-Regular-2e" d="M 653 -77 
Q 486 -77 364 44 
Q 243 166 243 333 
Q 243 506 364 627 
Q 486 749 653 749 
Q 826 749 947 627 
Q 1069 506 1069 333 
Q 1069 166 947 44 
Q 826 -77 653 -77 
z
" transform="scale(0.015625)"/>
      </defs>
      <use xlink:href="#AtkinsonHyperlegible-Regular-4b"/>
      <use xlink:href="#AtkinsonHyperlegible-Regular-6f" x="62.699997"/>
      <use xlink:href="#AtkinsonHyperlegible-Regular-72" x="117.899994"/>
      <use xlink:href="#AtkinsonHyperlegible-Regular-65" x="151.899979"/>
      <use xlink:href="#AtkinsonHyperlegible-Regular-61" x="205.799973"/>
      <use xlink:href="#AtkinsonHyperlegible-Regular-2c" x="258.399963"/>
      <use xlink:href="#AtkinsonHyperlegible-Regular-20" x="278.899948"/>
      <use xlink:href="#AtkinsonHyperlegible-Regular-52" x="306.899933"/>
      <use xlink:href="#AtkinsonHyperlegible-Regular-65" x="368.699921"/>
      <use xlink:href="#AtkinsonHyperlegible-Regular-70" x="422.599915"/>
      <use xlink:href="#AtkinsonHyperlegible-Regular-2e" x="479.199905"/>
     </g>
    </g>
    <g id="line2d_56">
     <path d="M 548.585 116.808906 
L 561.585 116.808906 
L 574.585 116.808906 
" style="fill: none; stroke-dasharray: 1.5,2.475; stroke-dashoffset: 0; stroke: #00308f; stroke-width: 1.5"/>
    </g>
    <g id="text_16">
     <!-- India -->
     <g transform="translate(584.985 121.358906) scale(0.13 -0.13)">
      <defs>
       <path id="AtkinsonHyperlegible-Regular-49" d="M 422 0 
L 422 474 
L 1024 474 
L 1024 3802 
L 422 3802 
L 422 4275 
L 2227 4275 
L 2227 3802 
L 1626 3802 
L 1626 474 
L 2227 474 
L 2227 0 
L 422 0 
z
" transform="scale(0.015625)"/>
       <path id="AtkinsonHyperlegible-Regular-64" d="M 1606 -77 
Q 1248 -77 934 118 
Q 621 314 432 682 
Q 243 1050 243 1574 
Q 243 2099 432 2467 
Q 621 2835 934 3030 
Q 1248 3226 1606 3226 
Q 1984 3226 2240 3075 
Q 2496 2925 2637 2675 
L 2637 4275 
L 3174 4275 
L 3174 1197 
Q 3174 1037 3187 726 
Q 3200 416 3283 0 
L 2778 0 
L 2637 480 
Q 2496 224 2240 73 
Q 1984 -77 1606 -77 
z
M 1747 384 
Q 2157 384 2403 697 
Q 2650 1011 2650 1574 
Q 2650 2144 2403 2454 
Q 2157 2765 1747 2765 
Q 1338 2765 1091 2454 
Q 845 2144 845 1574 
Q 845 1011 1091 697 
Q 1338 384 1747 384 
z
" transform="scale(0.015625)"/>
      </defs>
      <use xlink:href="#AtkinsonHyperlegible-Regular-49"/>
      <use xlink:href="#AtkinsonHyperlegible-Regular-6e" x="41.399994"/>
      <use xlink:href="#AtkinsonHyperlegible-Regular-64" x="95.999985"/>
      <use xlink:href="#AtkinsonHyperlegible-Regular-69" x="152.399979"/>
      <use xlink:href="#AtkinsonHyperlegible-Regular-61" x="180.199966"/>
     </g>
    </g>
    <g id="line2d_57">
     <path d="M 548.585 134.501094 
L 561.585 134.501094 
L 574.585 134.501094 
" style="fill: none; stroke-dasharray: 9.6,2.4,1.5,2.4; stroke-dashoffset: 0; stroke: #00308f; stroke-width: 1.5"/>
    </g>
    <g id="text_17">
     <!-- China -->
     <g transform="translate(584.985 139.051094) scale(0.13 -0.13)">
      <use xlink:href="#AtkinsonHyperlegible-Regular-43"/>
      <use xlink:href="#AtkinsonHyperlegible-Regular-68" x="65.599991"/>
      <use xlink:href="#AtkinsonHyperlegible-Regular-69" x="120.199982"/>
      <use xlink:href="#AtkinsonHyperlegible-Regular-6e" x="147.999969"/>
      <use xlink:href="#AtkinsonHyperlegible-Regular-61" x="202.59996"/>
     </g>
    </g>
    <g id="line2d_58">
     <path d="M 548.585 152.193281 
L 561.585 152.193281 
L 574.585 152.193281 
" style="fill: none; stroke: #007fff; stroke-width: 1.5; stroke-linecap: round"/>
    </g>
    <g id="text_18">
     <!-- World -->
     <g transform="translate(584.985 156.743281) scale(0.13 -0.13)">
      <defs>
       <path id="AtkinsonHyperlegible-Regular-57" d="M 1139 0 
L 64 4275 
L 723 4275 
L 1555 742 
L 2336 4275 
L 3040 4275 
L 3821 742 
L 4653 4275 
L 5312 4275 
L 4243 0 
L 3514 0 
L 2688 3533 
L 1862 0 
L 1139 0 
z
" transform="scale(0.015625)"/>
       <path id="AtkinsonHyperlegible-Regular-6c" d="M 1197 0 
Q 896 0 733 61 
Q 570 122 509 294 
Q 448 467 448 794 
L 448 4269 
L 986 4269 
L 986 883 
Q 986 640 1037 557 
Q 1088 474 1312 474 
L 1434 474 
L 1434 0 
L 1197 0 
z
" transform="scale(0.015625)"/>
      </defs>
      <use xlink:href="#AtkinsonHyperlegible-Regular-57"/>
      <use xlink:href="#AtkinsonHyperlegible-Regular-6f" x="83.999985"/>
      <use xlink:href="#AtkinsonHyperlegible-Regular-72" x="139.199982"/>
      <use xlink:href="#AtkinsonHyperlegible-Regular-6c" x="173.199966"/>
      <use xlink:href="#AtkinsonHyperlegible-Regular-64" x="197.09996"/>
     </g>
    </g>
    <g id="line2d_59">
     <path d="M 548.585 169.885469 
L 561.585 169.885469 
L 574.585 169.885469 
" style="fill: none; stroke-dasharray: 5.55,2.4; stroke-dashoffset: 0; stroke: #007fff; stroke-width: 1.5"/>
    </g>
    <g id="text_19">
     <!-- United States -->
     <g transform="translate(584.985 174.435469) scale(0.13 -0.13)">
      <defs>
       <path id="AtkinsonHyperlegible-Regular-55" d="M 2208 -77 
Q 1280 -77 883 387 
Q 486 851 486 1786 
L 486 4275 
L 1088 4275 
L 1088 1741 
Q 1088 1107 1341 774 
Q 1594 442 2208 442 
Q 2822 442 3075 774 
Q 3328 1107 3328 1741 
L 3328 4275 
L 3930 4275 
L 3930 1786 
Q 3930 851 3536 387 
Q 3142 -77 2208 -77 
z
" transform="scale(0.015625)"/>
       <path id="AtkinsonHyperlegible-Regular-74" d="M 1414 0 
Q 1114 0 950 61 
Q 787 122 726 294 
Q 666 467 666 794 
L 666 2746 
L 128 2746 
L 128 3174 
L 666 3174 
L 666 3974 
L 1203 3974 
L 1203 3174 
L 1818 3174 
L 1818 2746 
L 1203 2746 
L 1203 883 
Q 1203 640 1251 557 
Q 1299 474 1530 474 
L 1818 474 
L 1818 0 
L 1414 0 
z
" transform="scale(0.015625)"/>
       <path id="AtkinsonHyperlegible-Regular-73" d="M 1530 -77 
Q 1254 -77 988 9 
Q 723 96 515 272 
Q 307 448 198 717 
L 717 909 
Q 787 627 1027 502 
Q 1267 378 1530 378 
Q 1722 378 1891 435 
Q 2061 493 2169 601 
Q 2278 710 2278 851 
Q 2278 1114 2070 1222 
Q 1862 1331 1574 1389 
L 1133 1478 
Q 902 1530 704 1622 
Q 506 1715 384 1888 
Q 262 2061 262 2349 
Q 262 2637 441 2832 
Q 621 3027 899 3129 
Q 1178 3232 1485 3232 
Q 1862 3232 2198 3075 
Q 2534 2918 2675 2586 
L 2170 2400 
Q 2086 2592 1878 2685 
Q 1670 2778 1446 2778 
Q 1203 2778 1004 2669 
Q 806 2560 806 2355 
Q 806 2150 976 2057 
Q 1146 1965 1395 1914 
L 1811 1830 
Q 2067 1779 2297 1683 
Q 2528 1587 2675 1398 
Q 2822 1210 2822 870 
Q 2822 570 2636 358 
Q 2451 147 2156 35 
Q 1862 -77 1530 -77 
z
" transform="scale(0.015625)"/>
      </defs>
      <use xlink:href="#AtkinsonHyperlegible-Regular-55"/>
      <use xlink:href="#AtkinsonHyperlegible-Regular-6e" x="68.999985"/>
      <use xlink:href="#AtkinsonHyperlegible-Regular-69" x="123.599976"/>
      <use xlink:href="#AtkinsonHyperlegible-Regular-74" x="151.399963"/>
      <use xlink:href="#AtkinsonHyperlegible-Regular-65" x="183.799957"/>
      <use xlink:href="#AtkinsonHyperlegible-Regular-64" x="237.699951"/>
      <use xlink:href="#AtkinsonHyperlegible-Regular-20" x="294.099945"/>
      <use xlink:href="#AtkinsonHyperlegible-Regular-53" x="322.09993"/>
      <use xlink:href="#AtkinsonHyperlegible-Regular-74" x="381.699921"/>
      <use xlink:href="#AtkinsonHyperlegible-Regular-61" x="414.099915"/>
      <use xlink:href="#AtkinsonHyperlegible-Regular-74" x="466.699905"/>
      <use xlink:href="#AtkinsonHyperlegible-Regular-65" x="499.099899"/>
      <use xlink:href="#AtkinsonHyperlegible-Regular-73" x="552.999893"/>
     </g>
    </g>
    <g id="line2d_60">
     <path d="M 548.585 187.772656 
L 561.585 187.772656 
L 574.585 187.772656 
" style="fill: none; stroke-dasharray: 1.5,2.475; stroke-dashoffset: 0; stroke: #007fff; stroke-width: 1.5"/>
    </g>
    <g id="text_20">
     <!-- Singapore -->
     <g transform="translate(584.985 192.322656) scale(0.13 -0.13)">
      <use xlink:href="#AtkinsonHyperlegible-Regular-53"/>
      <use xlink:href="#AtkinsonHyperlegible-Regular-69" x="59.599991"/>
      <use xlink:href="#AtkinsonHyperlegible-Regular-6e" x="87.399979"/>
      <use xlink:href="#AtkinsonHyperlegible-Regular-67" x="141.999969"/>
      <use xlink:href="#AtkinsonHyperlegible-Regular-61" x="197.999954"/>
      <use xlink:href="#AtkinsonHyperlegible-Regular-70" x="250.599945"/>
      <use xlink:href="#AtkinsonHyperlegible-Regular-6f" x="307.199936"/>
      <use xlink:href="#AtkinsonHyperlegible-Regular-72" x="362.399933"/>
      <use xlink:href="#AtkinsonHyperlegible-Regular-65" x="396.399918"/>
     </g>
    </g>
    <g id="line2d_61">
     <path d="M 548.585 205.869062 
L 561.585 205.869062 
L 574.585 205.869062 
" style="fill: none; stroke-dasharray: 9.6,2.4,1.5,2.4; stroke-dashoffset: 0; stroke: #007fff; stroke-width: 1.5"/>
    </g>
    <g id="text_21">
     <!-- Sub-Saharan Africa -->
     <g transform="translate(584.985 210.419062) scale(0.13 -0.13)">
      <defs>
       <path id="AtkinsonHyperlegible-Regular-75" d="M 1453 -77 
Q 1082 -77 858 80 
Q 634 237 534 515 
Q 435 794 435 1152 
L 435 3181 
L 973 3181 
L 973 1280 
Q 973 928 1056 736 
Q 1139 544 1289 470 
Q 1440 397 1638 397 
Q 2016 397 2230 662 
Q 2445 928 2445 1434 
L 2445 3181 
L 2982 3181 
L 2982 0 
L 2579 0 
L 2445 461 
Q 2310 230 2080 76 
Q 1850 -77 1453 -77 
z
" transform="scale(0.015625)"/>
       <path id="AtkinsonHyperlegible-Regular-62" d="M 2016 -77 
Q 1645 -77 1389 73 
Q 1133 224 986 480 
L 845 0 
L 448 0 
L 448 4275 
L 986 4275 
L 986 2675 
Q 1133 2925 1389 3075 
Q 1645 3226 2016 3226 
Q 2381 3226 2691 3030 
Q 3002 2835 3190 2467 
Q 3379 2099 3379 1574 
Q 3379 1050 3190 682 
Q 3002 314 2691 118 
Q 2381 -77 2016 -77 
z
M 1875 384 
Q 2285 384 2531 697 
Q 2778 1011 2778 1574 
Q 2778 2144 2531 2454 
Q 2285 2765 1875 2765 
Q 1466 2765 1219 2454 
Q 973 2144 973 1574 
Q 973 1011 1219 697 
Q 1466 384 1875 384 
z
" transform="scale(0.015625)"/>
       <path id="AtkinsonHyperlegible-Regular-2d" d="M 243 1331 
L 243 1850 
L 2112 1850 
L 2112 1331 
L 243 1331 
z
" transform="scale(0.015625)"/>
       <path id="AtkinsonHyperlegible-Regular-66" d="M 634 0 
L 634 2746 
L 96 2746 
L 96 3174 
L 634 3174 
L 634 3648 
Q 634 3974 698 4166 
Q 762 4358 947 4438 
Q 1133 4518 1485 4518 
L 1830 4518 
L 1830 4064 
L 1498 4064 
Q 1293 4064 1232 3981 
Q 1171 3898 1171 3654 
L 1171 3174 
L 1830 3174 
L 1830 2746 
L 1171 2746 
L 1171 0 
L 634 0 
z
" transform="scale(0.015625)"/>
       <path id="AtkinsonHyperlegible-Regular-63" d="M 1722 -77 
Q 1267 -77 934 137 
Q 602 352 422 723 
Q 243 1094 243 1574 
Q 243 2048 432 2422 
Q 621 2797 966 3011 
Q 1312 3226 1779 3226 
Q 2208 3226 2515 3014 
Q 2822 2803 2976 2509 
L 2483 2330 
Q 2381 2522 2182 2637 
Q 1984 2752 1741 2752 
Q 1504 2752 1293 2627 
Q 1082 2502 954 2243 
Q 826 1984 826 1581 
Q 826 1184 957 918 
Q 1088 653 1296 525 
Q 1504 397 1741 397 
Q 2003 397 2198 515 
Q 2394 634 2496 813 
L 2989 634 
Q 2810 326 2477 124 
Q 2144 -77 1722 -77 
z
" transform="scale(0.015625)"/>
      </defs>
      <use xlink:href="#AtkinsonHyperlegible-Regular-53"/>
      <use xlink:href="#AtkinsonHyperlegible-Regular-75" x="59.599991"/>
      <use xlink:href="#AtkinsonHyperlegible-Regular-62" x="113.199982"/>
      <use xlink:href="#AtkinsonHyperlegible-Regular-2d" x="169.799973"/>
      <use xlink:href="#AtkinsonHyperlegible-Regular-53" x="206.59996"/>
      <use xlink:href="#AtkinsonHyperlegible-Regular-61" x="266.199951"/>
      <use xlink:href="#AtkinsonHyperlegible-Regular-68" x="318.799942"/>
      <use xlink:href="#AtkinsonHyperlegible-Regular-61" x="373.399933"/>
      <use xlink:href="#AtkinsonHyperlegible-Regular-72" x="425.999924"/>
      <use xlink:href="#AtkinsonHyperlegible-Regular-61" x="459.999908"/>
      <use xlink:href="#AtkinsonHyperlegible-Regular-6e" x="512.599899"/>
      <use xlink:href="#AtkinsonHyperlegible-Regular-20" x="567.19989"/>
      <use xlink:href="#AtkinsonHyperlegible-Regular-41" x="595.199875"/>
      <use xlink:href="#AtkinsonHyperlegible-Regular-66" x="657.799866"/>
      <use xlink:href="#AtkinsonHyperlegible-Regular-72" x="688.899857"/>
      <use xlink:href="#AtkinsonHyperlegible-Regular-69" x="722.899841"/>
      <use xlink:href="#AtkinsonHyperlegible-Regular-63" x="750.699829"/>
      <use xlink:href="#AtkinsonHyperlegible-Regular-61" x="800.699814"/>
     </g>
    </g>
    <g id="line2d_62">
     <path d="M 548.585 223.56125 
L 561.585 223.56125 
L 574.585 223.56125 
" style="fill: none; stroke: #6f00ff; stroke-width: 1.5; stroke-linecap: round"/>
    </g>
    <g id="text_22">
     <!-- Mauritius -->
     <g transform="translate(584.985 228.11125) scale(0.13 -0.13)">
      <defs>
       <path id="AtkinsonHyperlegible-Regular-4d" d="M 486 0 
L 486 4275 
L 1485 4275 
L 2624 781 
L 3763 4275 
L 4762 4275 
L 4762 0 
L 4160 0 
L 4160 3648 
L 2925 0 
L 2330 0 
L 1088 3648 
L 1088 0 
L 486 0 
z
" transform="scale(0.015625)"/>
      </defs>
      <use xlink:href="#AtkinsonHyperlegible-Regular-4d"/>
      <use xlink:href="#AtkinsonHyperlegible-Regular-61" x="81.999985"/>
      <use xlink:href="#AtkinsonHyperlegible-Regular-75" x="134.599976"/>
      <use xlink:href="#AtkinsonHyperlegible-Regular-72" x="188.199966"/>
      <use xlink:href="#AtkinsonHyperlegible-Regular-69" x="222.199951"/>
      <use xlink:href="#AtkinsonHyperlegible-Regular-74" x="249.999939"/>
      <use xlink:href="#AtkinsonHyperlegible-Regular-69" x="282.399933"/>
      <use xlink:href="#AtkinsonHyperlegible-Regular-75" x="310.199921"/>
      <use xlink:href="#AtkinsonHyperlegible-Regular-73" x="363.799911"/>
     </g>
    </g>
   </g>
  </g>
 </g>
 <defs>
  <clipPath id="pd78b637248">
   <rect x="68.451406" y="42.359375" width="488.25" height="221.76"/>
  </clipPath>
 </defs>
</svg>
