<?xml version="1.0" encoding="utf-8" standalone="no"?>
<!DOCTYPE svg PUBLIC "-//W3C//DTD SVG 1.1//EN"
  "http://www.w3.org/Graphics/SVG/1.1/DTD/svg11.dtd">
<svg xmlns:xlink="http://www.w3.org/1999/xlink" width="651.677344pt" height="218.730938pt" viewBox="0 0 651.677344 218.730938" xmlns="http://www.w3.org/2000/svg" version="1.1">
 <metadata>
  <rdf:RDF xmlns:dc="http://purl.org/dc/elements/1.1/" xmlns:cc="http://creativecommons.org/ns#" xmlns:rdf="http://www.w3.org/1999/02/22-rdf-syntax-ns#">
   <cc:Work>
    <dc:type rdf:resource="http://purl.org/dc/dcmitype/StillImage"/>
    <dc:date>2024-07-20T09:29:55.969471</dc:date>
    <dc:format>image/svg+xml</dc:format>
    <dc:creator>
     <cc:Agent>
      <dc:title>Matplotlib v3.7.5, https://matplotlib.org/</dc:title>
     </cc:Agent>
    </dc:creator>
   </cc:Work>
  </rdf:RDF>
 </metadata>
 <defs>
  <style type="text/css">*{stroke-linejoin: round; stroke-linecap: butt}</style>
 </defs>
 <g id="figure_1">
  <g id="patch_1">
   <path d="M 0 218.730938 
L 651.677344 218.730938 
L 651.677344 0 
L 0 0 
z
" style="fill: #ffffff"/>
  </g>
  <g id="axes_1">
   <g id="patch_2">
    <path d="M 86.477344 173.52 
L 644.477344 173.52 
L 644.477344 7.2 
L 86.477344 7.2 
z
" style="fill: #ffffff"/>
   </g>
   <g id="matplotlib.axis_1">
    <g id="xtick_1">
     <g id="line2d_1">
      <path d="M 111.84098 173.52 
L 111.84098 7.2 
" clip-path="url(#p8aa1e2c71b)" style="fill: none; stroke-dasharray: 4.81,2.08; stroke-dashoffset: 0; stroke: #e5e5e5; stroke-width: 1.3"/>
     </g>
     <g id="line2d_2"/>
     <g id="text_1">
      <!-- 1990 -->
      <g transform="translate(94.996449 187.025469) scale(0.15 -0.15)">
       <defs>
        <path id="AtkinsonHyperlegible-Regular-31" d="M 1408 0 
L 1408 3226 
L 269 3226 
L 269 3654 
Q 576 3654 841 3699 
Q 1107 3744 1302 3878 
Q 1498 4013 1587 4275 
L 1946 4275 
L 1946 0 
L 1408 0 
z
" transform="scale(0.015625)"/>
        <path id="AtkinsonHyperlegible-Regular-39" d="M 1363 0 
Q 1363 0 1449 121 
Q 1536 243 1673 441 
Q 1811 640 1964 873 
Q 2118 1107 2253 1325 
Q 2093 1286 1914 1286 
Q 1498 1286 1149 1494 
Q 800 1702 592 2051 
Q 384 2400 384 2822 
Q 384 3245 589 3590 
Q 794 3936 1142 4141 
Q 1491 4346 1914 4346 
Q 2355 4346 2700 4138 
Q 3046 3930 3244 3581 
Q 3443 3232 3443 2810 
Q 3443 2515 3328 2227 
Q 3296 2150 3181 1929 
Q 3066 1709 2890 1395 
Q 2714 1082 2493 720 
Q 2272 358 2029 0 
L 1363 0 
z
M 1914 1837 
Q 2189 1837 2413 1971 
Q 2637 2106 2771 2330 
Q 2906 2554 2906 2822 
Q 2906 3091 2771 3315 
Q 2637 3539 2413 3670 
Q 2189 3802 1914 3802 
Q 1645 3802 1421 3670 
Q 1197 3539 1065 3315 
Q 934 3091 934 2822 
Q 934 2554 1065 2330 
Q 1197 2106 1421 1971 
Q 1645 1837 1914 1837 
z
" transform="scale(0.015625)"/>
        <path id="AtkinsonHyperlegible-Regular-30" d="M 2074 -77 
Q 1248 -77 816 496 
Q 384 1069 384 2144 
Q 384 3213 816 3782 
Q 1248 4352 2074 4352 
Q 2899 4352 3331 3782 
Q 3763 3213 3763 2144 
Q 3763 1069 3331 496 
Q 2899 -77 2074 -77 
z
M 3072 1216 
Q 3181 1600 3181 2144 
Q 3181 2982 2909 3430 
Q 2637 3878 2074 3878 
Q 1658 3878 1389 3622 
L 3072 1216 
z
M 2074 397 
Q 2515 397 2784 685 
L 1094 3110 
Q 1030 2912 998 2669 
Q 966 2426 966 2144 
Q 966 1306 1238 851 
Q 1510 397 2074 397 
z
" transform="scale(0.015625)"/>
       </defs>
       <use xlink:href="#AtkinsonHyperlegible-Regular-31"/>
       <use xlink:href="#AtkinsonHyperlegible-Regular-39" x="40.199997"/>
       <use xlink:href="#AtkinsonHyperlegible-Regular-39" x="99.999985"/>
       <use xlink:href="#AtkinsonHyperlegible-Regular-30" x="159.799973"/>
      </g>
     </g>
    </g>
    <g id="xtick_2">
     <g id="line2d_3">
      <path d="M 193.659162 173.52 
L 193.659162 7.2 
" clip-path="url(#p8aa1e2c71b)" style="fill: none; stroke-dasharray: 4.81,2.08; stroke-dashoffset: 0; stroke: #e5e5e5; stroke-width: 1.3"/>
     </g>
     <g id="line2d_4"/>
     <g id="text_2">
      <!-- 1995 -->
      <g transform="translate(177.302131 187.025469) scale(0.15 -0.15)">
       <defs>
        <path id="AtkinsonHyperlegible-Regular-35" d="M 1818 -77 
Q 1389 -77 1088 64 
Q 787 205 608 441 
Q 429 678 346 966 
L 870 1120 
Q 947 768 1174 569 
Q 1402 371 1818 371 
Q 2074 371 2291 492 
Q 2509 614 2640 844 
Q 2771 1075 2771 1402 
Q 2771 1760 2627 1984 
Q 2483 2208 2262 2313 
Q 2042 2419 1811 2419 
Q 1478 2419 1267 2262 
Q 1056 2106 986 1946 
L 461 2099 
L 723 4275 
L 3174 4275 
L 3174 3757 
L 1158 3757 
L 1011 2560 
Q 1178 2726 1424 2803 
Q 1670 2880 1933 2880 
Q 2310 2880 2627 2707 
Q 2944 2534 3139 2208 
Q 3334 1882 3334 1408 
Q 3334 922 3120 589 
Q 2906 256 2560 89 
Q 2214 -77 1818 -77 
z
" transform="scale(0.015625)"/>
       </defs>
       <use xlink:href="#AtkinsonHyperlegible-Regular-31"/>
       <use xlink:href="#AtkinsonHyperlegible-Regular-39" x="40.199997"/>
       <use xlink:href="#AtkinsonHyperlegible-Regular-39" x="99.999985"/>
       <use xlink:href="#AtkinsonHyperlegible-Regular-35" x="159.799973"/>
      </g>
     </g>
    </g>
    <g id="xtick_3">
     <g id="line2d_5">
      <path d="M 275.477344 173.52 
L 275.477344 7.2 
" clip-path="url(#p8aa1e2c71b)" style="fill: none; stroke-dasharray: 4.81,2.08; stroke-dashoffset: 0; stroke: #e5e5e5; stroke-width: 1.3"/>
     </g>
     <g id="line2d_6"/>
     <g id="text_3">
      <!-- 2000 -->
      <g transform="translate(256.780078 187.025469) scale(0.15 -0.15)">
       <defs>
        <path id="AtkinsonHyperlegible-Regular-32" d="M 218 0 
L 218 480 
Q 973 1037 1507 1504 
Q 2042 1971 2326 2377 
Q 2611 2784 2611 3162 
Q 2611 3494 2400 3699 
Q 2189 3904 1811 3904 
Q 1510 3904 1251 3741 
Q 992 3578 915 3187 
L 378 3341 
Q 493 3808 877 4080 
Q 1261 4352 1824 4352 
Q 2221 4352 2525 4221 
Q 2829 4090 3005 3840 
Q 3181 3590 3181 3232 
Q 3181 2861 3001 2505 
Q 2822 2150 2508 1814 
Q 2195 1478 1792 1148 
Q 1389 819 941 493 
L 3296 493 
L 3296 0 
L 218 0 
z
" transform="scale(0.015625)"/>
       </defs>
       <use xlink:href="#AtkinsonHyperlegible-Regular-32"/>
       <use xlink:href="#AtkinsonHyperlegible-Regular-30" x="54.899994"/>
       <use xlink:href="#AtkinsonHyperlegible-Regular-30" x="119.699982"/>
       <use xlink:href="#AtkinsonHyperlegible-Regular-30" x="184.499969"/>
      </g>
     </g>
    </g>
    <g id="xtick_4">
     <g id="line2d_7">
      <path d="M 357.295526 173.52 
L 357.295526 7.2 
" clip-path="url(#p8aa1e2c71b)" style="fill: none; stroke-dasharray: 4.81,2.08; stroke-dashoffset: 0; stroke: #e5e5e5; stroke-width: 1.3"/>
     </g>
     <g id="line2d_8"/>
     <g id="text_4">
      <!-- 2005 -->
      <g transform="translate(339.08576 187.025469) scale(0.15 -0.15)">
       <use xlink:href="#AtkinsonHyperlegible-Regular-32"/>
       <use xlink:href="#AtkinsonHyperlegible-Regular-30" x="54.899994"/>
       <use xlink:href="#AtkinsonHyperlegible-Regular-30" x="119.699982"/>
       <use xlink:href="#AtkinsonHyperlegible-Regular-35" x="184.499969"/>
      </g>
     </g>
    </g>
    <g id="xtick_5">
     <g id="line2d_9">
      <path d="M 439.113707 173.52 
L 439.113707 7.2 
" clip-path="url(#p8aa1e2c71b)" style="fill: none; stroke-dasharray: 4.81,2.08; stroke-dashoffset: 0; stroke: #e5e5e5; stroke-width: 1.3"/>
     </g>
     <g id="line2d_10"/>
     <g id="text_5">
      <!-- 2010 -->
      <g transform="translate(422.260973 187.025469) scale(0.15 -0.15)">
       <use xlink:href="#AtkinsonHyperlegible-Regular-32"/>
       <use xlink:href="#AtkinsonHyperlegible-Regular-30" x="54.899994"/>
       <use xlink:href="#AtkinsonHyperlegible-Regular-31" x="119.699982"/>
       <use xlink:href="#AtkinsonHyperlegible-Regular-30" x="159.899979"/>
      </g>
     </g>
    </g>
    <g id="xtick_6">
     <g id="line2d_11">
      <path d="M 520.931889 173.52 
L 520.931889 7.2 
" clip-path="url(#p8aa1e2c71b)" style="fill: none; stroke-dasharray: 4.81,2.08; stroke-dashoffset: 0; stroke: #e5e5e5; stroke-width: 1.3"/>
     </g>
     <g id="line2d_12"/>
     <g id="text_6">
      <!-- 2015 -->
      <g transform="translate(504.566655 187.025469) scale(0.15 -0.15)">
       <use xlink:href="#AtkinsonHyperlegible-Regular-32"/>
       <use xlink:href="#AtkinsonHyperlegible-Regular-30" x="54.899994"/>
       <use xlink:href="#AtkinsonHyperlegible-Regular-31" x="119.699982"/>
       <use xlink:href="#AtkinsonHyperlegible-Regular-35" x="159.899979"/>
      </g>
     </g>
    </g>
    <g id="xtick_7">
     <g id="line2d_13">
      <path d="M 602.750071 173.52 
L 602.750071 7.2 
" clip-path="url(#p8aa1e2c71b)" style="fill: none; stroke-dasharray: 4.81,2.08; stroke-dashoffset: 0; stroke: #e5e5e5; stroke-width: 1.3"/>
     </g>
     <g id="line2d_14"/>
     <g id="text_7">
      <!-- 2020 -->
      <g transform="translate(584.794602 187.025469) scale(0.15 -0.15)">
       <use xlink:href="#AtkinsonHyperlegible-Regular-32"/>
       <use xlink:href="#AtkinsonHyperlegible-Regular-30" x="54.899994"/>
       <use xlink:href="#AtkinsonHyperlegible-Regular-32" x="119.699982"/>
       <use xlink:href="#AtkinsonHyperlegible-Regular-30" x="174.599976"/>
      </g>
     </g>
    </g>
    <g id="text_8">
     <!-- Date -->
     <g transform="translate(607.350938 208.795) scale(0.17 -0.17)">
      <defs>
       <path id="AtkinsonHyperlegible-Bold-44" d="M 282 0 
L 282 4275 
L 1690 4275 
Q 2214 4275 2665 4169 
Q 3117 4064 3453 3817 
Q 3789 3571 3977 3158 
Q 4166 2746 4166 2138 
Q 4166 1523 3977 1113 
Q 3789 704 3453 457 
Q 3117 211 2665 105 
Q 2214 0 1690 0 
L 282 0 
z
M 1293 851 
L 1709 851 
Q 1984 851 2237 896 
Q 2490 941 2691 1072 
Q 2893 1203 3008 1459 
Q 3123 1715 3123 2138 
Q 3123 2560 3008 2819 
Q 2893 3078 2691 3209 
Q 2490 3341 2237 3389 
Q 1984 3437 1709 3437 
L 1293 3437 
L 1293 851 
z
" transform="scale(0.015625)"/>
       <path id="AtkinsonHyperlegible-Bold-61" d="M 1248 -77 
Q 947 -77 697 38 
Q 448 154 301 362 
Q 154 570 154 858 
Q 154 1248 426 1478 
Q 698 1709 1171 1824 
Q 1645 1939 2259 1984 
Q 2259 2323 2150 2464 
Q 2042 2605 1728 2605 
Q 1530 2605 1379 2512 
Q 1229 2419 1178 2227 
L 358 2522 
Q 518 2842 892 3053 
Q 1267 3264 1811 3264 
Q 2490 3264 2854 2963 
Q 3219 2662 3219 1939 
L 3219 1242 
Q 3219 1037 3232 800 
Q 3245 563 3270 352 
Q 3296 141 3328 0 
L 2426 0 
L 2310 384 
Q 2131 134 1859 28 
Q 1587 -77 1248 -77 
z
M 1606 589 
Q 1894 589 2086 742 
Q 2278 896 2278 1331 
L 2278 1408 
Q 1773 1363 1465 1270 
Q 1158 1178 1158 928 
Q 1158 774 1286 681 
Q 1414 589 1606 589 
z
" transform="scale(0.015625)"/>
       <path id="AtkinsonHyperlegible-Bold-74" d="M 1658 0 
Q 1267 0 1036 67 
Q 806 134 707 329 
Q 608 525 608 896 
L 608 2432 
L 83 2432 
L 83 3174 
L 608 3174 
L 608 3968 
L 1581 3968 
L 1581 3174 
L 2272 3174 
L 2272 2432 
L 1581 2432 
L 1581 1152 
Q 1581 928 1667 861 
Q 1754 794 1990 794 
L 2272 794 
L 2272 0 
L 1658 0 
z
" transform="scale(0.015625)"/>
       <path id="AtkinsonHyperlegible-Bold-65" d="M 1894 -77 
Q 1382 -77 988 124 
Q 595 326 374 704 
Q 154 1082 154 1606 
Q 154 2112 387 2483 
Q 621 2854 1008 3059 
Q 1395 3264 1856 3264 
Q 2381 3264 2755 3017 
Q 3130 2771 3322 2339 
Q 3514 1907 3482 1344 
L 1133 1344 
Q 1158 1011 1379 844 
Q 1600 678 1869 678 
Q 2093 678 2256 745 
Q 2419 813 2509 915 
L 3283 634 
Q 3034 269 2659 96 
Q 2285 -77 1894 -77 
z
M 1133 1920 
L 2579 1920 
Q 2573 2227 2368 2384 
Q 2163 2541 1882 2541 
Q 1606 2541 1392 2393 
Q 1178 2246 1133 1920 
z
" transform="scale(0.015625)"/>
      </defs>
      <use xlink:href="#AtkinsonHyperlegible-Bold-44"/>
      <use xlink:href="#AtkinsonHyperlegible-Bold-61" x="68.599991"/>
      <use xlink:href="#AtkinsonHyperlegible-Bold-74" x="123.899979"/>
      <use xlink:href="#AtkinsonHyperlegible-Bold-65" x="161.799973"/>
     </g>
    </g>
   </g>
   <g id="matplotlib.axis_2">
    <g id="ytick_1">
     <g id="line2d_15">
      <path d="M 86.477344 159.296949 
L 644.477344 159.296949 
" clip-path="url(#p8aa1e2c71b)" style="fill: none; stroke-dasharray: 4.81,2.08; stroke-dashoffset: 0; stroke: #e5e5e5; stroke-width: 1.3"/>
     </g>
     <g id="line2d_16"/>
     <g id="text_9">
      <!-- −20.0% -->
      <g transform="translate(29.291406 164.299684) scale(0.15 -0.15)">
       <defs>
        <path id="AtkinsonHyperlegible-Regular-2212" d="M 339 1338 
L 339 1843 
L 3514 1843 
L 3514 1338 
L 339 1338 
z
" transform="scale(0.015625)"/>
        <path id="AtkinsonHyperlegible-Regular-2e" d="M 653 -77 
Q 486 -77 364 44 
Q 243 166 243 333 
Q 243 506 364 627 
Q 486 749 653 749 
Q 826 749 947 627 
Q 1069 506 1069 333 
Q 1069 166 947 44 
Q 826 -77 653 -77 
z
" transform="scale(0.015625)"/>
        <path id="AtkinsonHyperlegible-Regular-25" d="M 1408 2029 
Q 1088 2029 822 2185 
Q 557 2342 400 2604 
Q 243 2867 243 3187 
Q 243 3514 400 3776 
Q 557 4038 822 4195 
Q 1088 4352 1408 4352 
Q 1728 4352 1990 4195 
Q 2253 4038 2409 3776 
Q 2566 3514 2566 3187 
Q 2566 2867 2409 2604 
Q 2253 2342 1990 2185 
Q 1728 2029 1408 2029 
z
M 1190 0 
L 4186 4275 
L 4749 4275 
L 1754 0 
L 1190 0 
z
M 1408 2502 
Q 1690 2502 1891 2704 
Q 2093 2906 2093 3187 
Q 2093 3475 1891 3676 
Q 1690 3878 1408 3878 
Q 1120 3878 918 3676 
Q 717 3475 717 3187 
Q 717 2906 921 2704 
Q 1126 2502 1408 2502 
z
M 4531 -77 
Q 4211 -77 3945 80 
Q 3680 237 3523 502 
Q 3366 768 3366 1088 
Q 3366 1408 3523 1673 
Q 3680 1939 3945 2096 
Q 4211 2253 4531 2253 
Q 4851 2253 5113 2096 
Q 5376 1939 5533 1673 
Q 5690 1408 5690 1088 
Q 5690 768 5533 502 
Q 5376 237 5113 80 
Q 4851 -77 4531 -77 
z
M 4531 397 
Q 4813 397 5014 601 
Q 5216 806 5216 1088 
Q 5216 1370 5014 1571 
Q 4813 1773 4531 1773 
Q 4243 1773 4041 1571 
Q 3840 1370 3840 1088 
Q 3840 806 4041 601 
Q 4243 397 4531 397 
z
" transform="scale(0.015625)"/>
       </defs>
       <use xlink:href="#AtkinsonHyperlegible-Regular-2212"/>
       <use xlink:href="#AtkinsonHyperlegible-Regular-32" x="60.199997"/>
       <use xlink:href="#AtkinsonHyperlegible-Regular-30" x="115.099991"/>
       <use xlink:href="#AtkinsonHyperlegible-Regular-2e" x="179.899979"/>
       <use xlink:href="#AtkinsonHyperlegible-Regular-30" x="200.399963"/>
       <use xlink:href="#AtkinsonHyperlegible-Regular-25" x="265.199951"/>
      </g>
     </g>
    </g>
    <g id="ytick_2">
     <g id="line2d_17">
      <path d="M 86.477344 108.042712 
L 644.477344 108.042712 
" clip-path="url(#p8aa1e2c71b)" style="fill: none; stroke-dasharray: 4.81,2.08; stroke-dashoffset: 0; stroke: #e5e5e5; stroke-width: 1.3"/>
     </g>
     <g id="line2d_18"/>
     <g id="text_10">
      <!-- −10.0% -->
      <g transform="translate(31.496875 113.045446) scale(0.15 -0.15)">
       <use xlink:href="#AtkinsonHyperlegible-Regular-2212"/>
       <use xlink:href="#AtkinsonHyperlegible-Regular-31" x="60.199997"/>
       <use xlink:href="#AtkinsonHyperlegible-Regular-30" x="100.399994"/>
       <use xlink:href="#AtkinsonHyperlegible-Regular-2e" x="165.199982"/>
       <use xlink:href="#AtkinsonHyperlegible-Regular-30" x="185.699966"/>
       <use xlink:href="#AtkinsonHyperlegible-Regular-25" x="250.499954"/>
      </g>
     </g>
    </g>
    <g id="ytick_3">
     <g id="line2d_19">
      <path d="M 86.477344 56.788475 
L 644.477344 56.788475 
" clip-path="url(#p8aa1e2c71b)" style="fill: none; stroke-dasharray: 4.81,2.08; stroke-dashoffset: 0; stroke: #e5e5e5; stroke-width: 1.3"/>
     </g>
     <g id="line2d_20"/>
     <g id="text_11">
      <!-- 0.0% -->
      <g transform="translate(46.557813 61.791209) scale(0.15 -0.15)">
       <use xlink:href="#AtkinsonHyperlegible-Regular-30"/>
       <use xlink:href="#AtkinsonHyperlegible-Regular-2e" x="64.799988"/>
       <use xlink:href="#AtkinsonHyperlegible-Regular-30" x="85.299973"/>
       <use xlink:href="#AtkinsonHyperlegible-Regular-25" x="150.09996"/>
      </g>
     </g>
    </g>
    <g id="text_12">
     <!-- GDP Growth % -->
     <g transform="translate(18.555469 125.963594) rotate(-90) scale(0.17 -0.17)">
      <defs>
       <path id="AtkinsonHyperlegible-Bold-47" d="M 2253 -77 
Q 1626 -77 1171 195 
Q 717 467 470 969 
Q 224 1472 224 2150 
Q 224 2829 499 3321 
Q 774 3814 1264 4083 
Q 1754 4352 2400 4352 
Q 2963 4352 3414 4128 
Q 3866 3904 4122 3469 
L 3251 3110 
Q 3149 3277 2934 3398 
Q 2720 3520 2387 3520 
Q 2086 3520 1836 3366 
Q 1587 3213 1440 2909 
Q 1293 2605 1293 2150 
Q 1293 1478 1600 1116 
Q 1907 755 2406 755 
Q 2643 755 2860 822 
Q 3078 890 3219 1050 
Q 3360 1210 3360 1478 
L 3360 1600 
L 2400 1600 
L 2400 2419 
L 4371 2419 
L 4371 0 
L 3706 0 
L 3565 474 
Q 3155 -77 2253 -77 
z
" transform="scale(0.015625)"/>
       <path id="AtkinsonHyperlegible-Bold-50" d="M 282 0 
L 282 4275 
L 1926 4275 
Q 2483 4275 2921 4160 
Q 3360 4045 3613 3744 
Q 3866 3443 3866 2880 
Q 3866 2323 3613 2019 
Q 3360 1715 2921 1600 
Q 2483 1485 1926 1485 
L 1293 1485 
L 1293 0 
L 282 0 
z
M 1293 2323 
L 1958 2323 
Q 2195 2323 2384 2368 
Q 2573 2413 2685 2534 
Q 2797 2656 2797 2880 
Q 2797 3104 2685 3222 
Q 2573 3341 2384 3382 
Q 2195 3424 1958 3424 
L 1293 3424 
L 1293 2323 
z
" transform="scale(0.015625)"/>
       <path id="AtkinsonHyperlegible-Bold-20" transform="scale(0.015625)"/>
       <path id="AtkinsonHyperlegible-Bold-72" d="M 320 0 
L 320 3174 
L 1088 3174 
L 1261 2592 
Q 1408 2976 1664 3129 
Q 1920 3283 2285 3264 
L 2285 2291 
Q 2208 2304 2150 2307 
Q 2093 2310 2022 2310 
Q 1670 2310 1481 2144 
Q 1293 1978 1293 1600 
L 1293 0 
L 320 0 
z
" transform="scale(0.015625)"/>
       <path id="AtkinsonHyperlegible-Bold-6f" d="M 1837 -77 
Q 1395 -77 1011 102 
Q 627 282 390 656 
Q 154 1030 154 1600 
Q 154 2176 390 2544 
Q 627 2912 1011 3088 
Q 1395 3264 1837 3264 
Q 2272 3264 2656 3088 
Q 3040 2912 3277 2544 
Q 3514 2176 3514 1600 
Q 3514 1030 3277 656 
Q 3040 282 2656 102 
Q 2272 -77 1837 -77 
z
M 1837 678 
Q 2131 678 2326 889 
Q 2522 1101 2522 1600 
Q 2522 2106 2320 2307 
Q 2118 2509 1837 2509 
Q 1549 2509 1347 2307 
Q 1146 2106 1146 1600 
Q 1146 1101 1344 889 
Q 1542 678 1837 678 
z
" transform="scale(0.015625)"/>
       <path id="AtkinsonHyperlegible-Bold-77" d="M 794 0 
L 0 3174 
L 960 3174 
L 1440 1024 
L 1850 3174 
L 2771 3174 
L 3181 1024 
L 3661 3174 
L 4627 3174 
L 3834 0 
L 2771 0 
L 2310 2278 
L 1856 0 
L 794 0 
z
" transform="scale(0.015625)"/>
       <path id="AtkinsonHyperlegible-Bold-68" d="M 320 0 
L 320 4275 
L 1293 4275 
L 1293 2752 
Q 1402 2931 1654 3097 
Q 1907 3264 2272 3264 
Q 2886 3264 3113 2921 
Q 3341 2579 3341 1933 
L 3341 0 
L 2368 0 
L 2368 1690 
Q 2368 1914 2342 2099 
Q 2317 2285 2217 2397 
Q 2118 2509 1882 2509 
Q 1574 2509 1433 2288 
Q 1293 2067 1293 1632 
L 1293 0 
L 320 0 
z
" transform="scale(0.015625)"/>
       <path id="AtkinsonHyperlegible-Bold-25" d="M 1414 1830 
Q 1069 1830 781 2000 
Q 493 2170 323 2454 
Q 154 2739 154 3085 
Q 154 3437 323 3721 
Q 493 4006 781 4179 
Q 1069 4352 1414 4352 
Q 1760 4352 2048 4179 
Q 2336 4006 2505 3721 
Q 2675 3437 2675 3085 
Q 2675 2739 2505 2454 
Q 2336 2170 2048 2000 
Q 1760 1830 1414 1830 
z
M 1229 0 
L 4218 4275 
L 5030 4275 
L 2035 0 
L 1229 0 
z
M 1414 2586 
Q 1626 2586 1773 2733 
Q 1920 2880 1920 3085 
Q 1920 3296 1773 3443 
Q 1626 3590 1414 3590 
Q 1210 3590 1062 3443 
Q 915 3296 915 3085 
Q 915 2880 1062 2733 
Q 1210 2586 1414 2586 
z
M 4838 -77 
Q 4493 -77 4205 96 
Q 3917 269 3747 557 
Q 3578 845 3578 1190 
Q 3578 1542 3747 1824 
Q 3917 2106 4205 2275 
Q 4493 2445 4838 2445 
Q 5190 2445 5475 2275 
Q 5760 2106 5929 1824 
Q 6099 1542 6099 1190 
Q 6099 845 5929 557 
Q 5760 269 5475 96 
Q 5190 -77 4838 -77 
z
M 4838 685 
Q 5043 685 5193 832 
Q 5344 979 5344 1190 
Q 5344 1395 5193 1542 
Q 5043 1690 4838 1690 
Q 4634 1690 4483 1542 
Q 4333 1395 4333 1190 
Q 4333 979 4483 832 
Q 4634 685 4838 685 
z
" transform="scale(0.015625)"/>
      </defs>
      <use xlink:href="#AtkinsonHyperlegible-Bold-47"/>
      <use xlink:href="#AtkinsonHyperlegible-Bold-44" x="71.899994"/>
      <use xlink:href="#AtkinsonHyperlegible-Bold-50" x="140.499985"/>
      <use xlink:href="#AtkinsonHyperlegible-Bold-20" x="203.099976"/>
      <use xlink:href="#AtkinsonHyperlegible-Bold-47" x="235.09996"/>
      <use xlink:href="#AtkinsonHyperlegible-Bold-72" x="306.999954"/>
      <use xlink:href="#AtkinsonHyperlegible-Bold-6f" x="344.199951"/>
      <use xlink:href="#AtkinsonHyperlegible-Bold-77" x="401.499939"/>
      <use xlink:href="#AtkinsonHyperlegible-Bold-74" x="473.799927"/>
      <use xlink:href="#AtkinsonHyperlegible-Bold-68" x="511.699921"/>
      <use xlink:href="#AtkinsonHyperlegible-Bold-20" x="568.899918"/>
      <use xlink:href="#AtkinsonHyperlegible-Bold-25" x="600.899902"/>
     </g>
    </g>
   </g>
   <g id="line2d_21">
    <path d="M 111.84098 19.885424 
L 128.204616 34.23661 
L 144.568253 23.47322 
L 160.931889 30.648814 
L 177.295526 35.774237 
L 193.659162 34.749153 
L 210.022798 28.086102 
L 226.386435 27.573559 
L 242.750071 25.52339 
L 259.113707 43.462373 
L 275.477344 14.76 
L 291.84098 40.387119 
L 308.204616 48.587797 
L 324.568253 26.035932 
L 340.931889 34.749153 
L 357.295526 49.100339 
L 373.659162 33.724068 
L 390.022798 27.573559 
L 406.386435 28.086102 
L 422.750071 39.874576 
L 439.113707 36.28678 
L 455.477344 48.587797 
L 471.84098 40.387119 
L 488.204616 67.039322 
L 504.568253 43.974915 
L 520.931889 71.652203 
L 537.295526 60.376271 
L 553.659162 49.612881 
L 570.022798 22.448136 
L 586.386435 55.76339 
L 602.750071 165.96 
L 619.113707 55.250847 
" clip-path="url(#p8aa1e2c71b)" style="fill: none; stroke: #1f77b4; stroke-width: 1.5; stroke-linecap: round"/>
   </g>
   <g id="patch_3">
    <path d="M 86.477344 173.52 
L 86.477344 7.2 
" style="fill: none"/>
   </g>
   <g id="patch_4">
    <path d="M 644.477344 173.52 
L 644.477344 7.2 
" style="fill: none"/>
   </g>
   <g id="patch_5">
    <path d="M 86.477344 173.52 
L 644.477344 173.52 
" style="fill: none"/>
   </g>
   <g id="patch_6">
    <path d="M 86.477344 7.2 
L 644.477344 7.2 
" style="fill: none"/>
   </g>
   <g id="legend_1">
    <g id="line2d_22">
     <path d="M 99.977344 152.355938 
L 114.977344 152.355938 
L 129.977344 152.355938 
" style="fill: none; stroke: #1f77b4; stroke-width: 1.5; stroke-linecap: round"/>
    </g>
    <g id="text_13">
     <!-- Real GDP Growth -->
     <g transform="translate(141.977344 157.605938) scale(0.15 -0.15)">
      <defs>
       <path id="AtkinsonHyperlegible-Regular-52" d="M 486 0 
L 486 4275 
L 1843 4275 
Q 2368 4275 2768 4182 
Q 3168 4090 3395 3824 
Q 3622 3558 3622 3046 
Q 3622 2758 3532 2508 
Q 3443 2259 3190 2086 
Q 2938 1914 2438 1843 
L 3763 0 
L 3027 0 
L 1728 1798 
L 1088 1798 
L 1088 0 
L 486 0 
z
M 1088 2304 
L 1888 2304 
Q 2202 2304 2454 2349 
Q 2707 2394 2857 2550 
Q 3008 2707 3008 3034 
Q 3008 3366 2857 3520 
Q 2707 3674 2454 3722 
Q 2202 3770 1888 3770 
L 1088 3770 
L 1088 2304 
z
" transform="scale(0.015625)"/>
       <path id="AtkinsonHyperlegible-Regular-65" d="M 1798 -77 
Q 1299 -77 953 144 
Q 608 365 425 739 
Q 243 1114 243 1581 
Q 243 2086 448 2454 
Q 653 2822 1001 3024 
Q 1350 3226 1786 3226 
Q 2163 3226 2451 3075 
Q 2739 2925 2928 2672 
Q 3117 2419 3203 2099 
Q 3290 1779 3264 1440 
L 819 1440 
Q 832 1043 995 812 
Q 1158 582 1382 489 
Q 1606 397 1798 397 
Q 2067 397 2249 483 
Q 2432 570 2541 710 
L 3059 557 
Q 2886 282 2566 102 
Q 2246 -77 1798 -77 
z
M 826 1869 
L 2694 1869 
Q 2694 2093 2582 2297 
Q 2470 2502 2268 2633 
Q 2067 2765 1786 2765 
Q 1549 2765 1337 2675 
Q 1126 2586 988 2387 
Q 851 2189 826 1869 
z
" transform="scale(0.015625)"/>
       <path id="AtkinsonHyperlegible-Regular-61" d="M 1338 -77 
Q 1037 -77 787 32 
Q 538 141 390 345 
Q 243 550 243 838 
Q 243 1216 508 1433 
Q 774 1651 1257 1769 
Q 1741 1888 2387 1958 
Q 2400 2362 2227 2579 
Q 2054 2797 1670 2797 
Q 1382 2797 1200 2665 
Q 1018 2534 966 2304 
L 448 2458 
Q 576 2822 905 3024 
Q 1235 3226 1664 3226 
Q 2323 3226 2627 2915 
Q 2931 2605 2931 1939 
L 2931 1197 
Q 2931 800 2963 512 
Q 2995 224 3040 0 
L 2547 0 
L 2419 435 
Q 2278 198 2016 60 
Q 1754 -77 1338 -77 
z
M 1453 352 
Q 1702 352 1926 441 
Q 2150 531 2291 745 
Q 2432 960 2432 1331 
L 2432 1530 
Q 1946 1478 1587 1404 
Q 1229 1331 1033 1200 
Q 838 1069 838 851 
Q 838 627 1001 489 
Q 1165 352 1453 352 
z
" transform="scale(0.015625)"/>
       <path id="AtkinsonHyperlegible-Regular-6c" d="M 1197 0 
Q 896 0 733 61 
Q 570 122 509 294 
Q 448 467 448 794 
L 448 4269 
L 986 4269 
L 986 883 
Q 986 640 1037 557 
Q 1088 474 1312 474 
L 1434 474 
L 1434 0 
L 1197 0 
z
" transform="scale(0.015625)"/>
       <path id="AtkinsonHyperlegible-Regular-20" transform="scale(0.015625)"/>
       <path id="AtkinsonHyperlegible-Regular-47" d="M 2253 -77 
Q 1638 -77 1206 208 
Q 774 493 547 992 
Q 320 1491 320 2144 
Q 320 2810 566 3306 
Q 813 3802 1261 4077 
Q 1709 4352 2310 4352 
Q 2848 4352 3280 4102 
Q 3712 3853 3936 3386 
L 3405 3194 
Q 3264 3482 2979 3664 
Q 2694 3846 2278 3846 
Q 1901 3846 1597 3654 
Q 1293 3462 1113 3081 
Q 934 2701 934 2144 
Q 934 1606 1104 1222 
Q 1274 838 1578 633 
Q 1882 429 2278 429 
Q 2490 429 2714 480 
Q 2938 531 3123 656 
Q 3309 781 3424 998 
Q 3539 1216 3539 1549 
L 3539 1690 
L 2291 1690 
L 2291 2208 
L 4109 2208 
L 4109 0 
L 3763 0 
L 3603 538 
Q 3398 211 3043 67 
Q 2688 -77 2253 -77 
z
" transform="scale(0.015625)"/>
       <path id="AtkinsonHyperlegible-Regular-44" d="M 486 0 
L 486 4275 
L 1651 4275 
Q 2163 4275 2588 4169 
Q 3014 4064 3328 3821 
Q 3642 3578 3814 3165 
Q 3987 2752 3987 2144 
Q 3987 1530 3814 1117 
Q 3642 704 3328 457 
Q 3014 211 2588 105 
Q 2163 0 1651 0 
L 486 0 
z
M 1088 506 
L 1638 506 
Q 1971 506 2281 560 
Q 2592 614 2838 777 
Q 3085 941 3229 1270 
Q 3373 1600 3373 2144 
Q 3373 2688 3229 3011 
Q 3085 3334 2838 3497 
Q 2592 3661 2281 3715 
Q 1971 3770 1638 3770 
L 1088 3770 
L 1088 506 
z
" transform="scale(0.015625)"/>
       <path id="AtkinsonHyperlegible-Regular-50" d="M 486 6 
L 486 4275 
L 1824 4275 
Q 2349 4275 2749 4172 
Q 3149 4070 3376 3792 
Q 3603 3514 3603 2982 
Q 3603 2458 3376 2179 
Q 3149 1901 2749 1801 
Q 2349 1702 1824 1702 
L 1088 1702 
L 1088 6 
L 486 6 
z
M 1088 2221 
L 1875 2221 
Q 2189 2221 2438 2265 
Q 2688 2310 2838 2473 
Q 2989 2637 2989 2982 
Q 2989 3334 2838 3500 
Q 2688 3667 2438 3718 
Q 2189 3770 1875 3770 
L 1088 3770 
L 1088 2221 
z
" transform="scale(0.015625)"/>
       <path id="AtkinsonHyperlegible-Regular-72" d="M 448 0 
L 448 3174 
L 838 3174 
L 1011 2586 
Q 1178 2874 1462 3050 
Q 1747 3226 2144 3226 
L 2144 2669 
Q 2099 2669 2051 2669 
Q 2003 2669 1958 2662 
Q 1414 2618 1200 2285 
Q 986 1952 986 1363 
L 986 0 
L 448 0 
z
" transform="scale(0.015625)"/>
       <path id="AtkinsonHyperlegible-Regular-6f" d="M 1766 -77 
Q 1491 -77 1222 19 
Q 954 115 733 316 
Q 512 518 377 832 
Q 243 1146 243 1574 
Q 243 2003 377 2316 
Q 512 2630 733 2832 
Q 954 3034 1222 3130 
Q 1491 3226 1766 3226 
Q 2042 3226 2314 3130 
Q 2586 3034 2806 2832 
Q 3027 2630 3158 2316 
Q 3290 2003 3290 1574 
Q 3290 1146 3158 832 
Q 3027 518 2806 316 
Q 2586 115 2314 19 
Q 2042 -77 1766 -77 
z
M 1766 397 
Q 1997 397 2214 521 
Q 2432 646 2573 905 
Q 2714 1165 2714 1574 
Q 2714 1984 2573 2243 
Q 2432 2502 2214 2627 
Q 1997 2752 1766 2752 
Q 1542 2752 1321 2627 
Q 1101 2502 960 2243 
Q 819 1984 819 1574 
Q 819 1165 960 905 
Q 1101 646 1321 521 
Q 1542 397 1766 397 
z
" transform="scale(0.015625)"/>
       <path id="AtkinsonHyperlegible-Regular-77" d="M 915 0 
L 0 3174 
L 576 3174 
L 1184 826 
L 1818 3174 
L 2374 3174 
L 3002 826 
L 3610 3174 
L 4186 3174 
L 3277 0 
L 2784 0 
L 2093 2554 
L 1402 0 
L 915 0 
z
" transform="scale(0.015625)"/>
       <path id="AtkinsonHyperlegible-Regular-74" d="M 1414 0 
Q 1114 0 950 61 
Q 787 122 726 294 
Q 666 467 666 794 
L 666 2746 
L 128 2746 
L 128 3174 
L 666 3174 
L 666 3974 
L 1203 3974 
L 1203 3174 
L 1818 3174 
L 1818 2746 
L 1203 2746 
L 1203 883 
Q 1203 640 1251 557 
Q 1299 474 1530 474 
L 1818 474 
L 1818 0 
L 1414 0 
z
" transform="scale(0.015625)"/>
       <path id="AtkinsonHyperlegible-Regular-68" d="M 448 0 
L 448 4275 
L 986 4275 
L 986 2694 
Q 1120 2918 1363 3072 
Q 1606 3226 2010 3226 
Q 2586 3226 2822 2890 
Q 3059 2554 3059 2010 
L 3059 0 
L 2522 0 
L 2522 1850 
Q 2522 2093 2477 2301 
Q 2432 2509 2281 2637 
Q 2131 2765 1824 2765 
Q 1434 2765 1210 2499 
Q 986 2234 986 1722 
L 986 0 
L 448 0 
z
" transform="scale(0.015625)"/>
      </defs>
      <use xlink:href="#AtkinsonHyperlegible-Regular-52"/>
      <use xlink:href="#AtkinsonHyperlegible-Regular-65" x="61.799988"/>
      <use xlink:href="#AtkinsonHyperlegible-Regular-61" x="115.699982"/>
      <use xlink:href="#AtkinsonHyperlegible-Regular-6c" x="168.299973"/>
      <use xlink:href="#AtkinsonHyperlegible-Regular-20" x="192.199966"/>
      <use xlink:href="#AtkinsonHyperlegible-Regular-47" x="220.199951"/>
      <use xlink:href="#AtkinsonHyperlegible-Regular-44" x="291.199936"/>
      <use xlink:href="#AtkinsonHyperlegible-Regular-50" x="358.499924"/>
      <use xlink:href="#AtkinsonHyperlegible-Regular-20" x="418.599915"/>
      <use xlink:href="#AtkinsonHyperlegible-Regular-47" x="446.599899"/>
      <use xlink:href="#AtkinsonHyperlegible-Regular-72" x="517.599884"/>
      <use xlink:href="#AtkinsonHyperlegible-Regular-6f" x="551.599869"/>
      <use xlink:href="#AtkinsonHyperlegible-Regular-77" x="606.799866"/>
      <use xlink:href="#AtkinsonHyperlegible-Regular-74" x="672.19986"/>
      <use xlink:href="#AtkinsonHyperlegible-Regular-68" x="704.599854"/>
     </g>
    </g>
   </g>
  </g>
 </g>
 <defs>
  <clipPath id="p8aa1e2c71b">
   <rect x="86.477344" y="7.2" width="558" height="166.32"/>
  </clipPath>
 </defs>
</svg>
